<svg width="556" height="273" viewBox="0 0 556 273" fill="none" xmlns="http://www.w3.org/2000/svg">
<rect x="1" y="146" width="520" height="126" rx="20" fill="#763495"/>
<rect x="1" y="146" width="520" height="126" rx="20" fill="url(#paint0_linear)"/>
<rect x="1" y="146" width="520" height="126" rx="20" stroke="black"/>
<g filter="url(#filter0_d)">
<path d="M97.5234 219.625L97.4297 225.578L80.8125 226.188V218.805L83.1797 218.945L80.0156 203.922L74.9297 219.531L76.9922 219.625L76.8516 225.578L60.2344 226.188V218.805L65.4141 219.086L59.9062 199.164L55.3828 199.305V191.922L75.6797 192.742L75.5391 198.695L67.2891 198.977L69.6797 215.289L78.5156 198.203H82.5L87.8438 214.047L93.5391 198.602L86.625 199.164L86.25 191.781L106.547 191.594L106.688 197.547L98.9766 198.156L92.2031 219.367L97.5234 219.625ZM123.586 220.633V224.57L105.539 226.867L104.859 220.867L110.859 220.82L111.141 207.812L103.852 207.273V203.289L119.016 201.953L118.242 207.18C118.586 206.82 119.039 206.406 119.602 205.938C120.164 205.453 120.781 204.969 121.453 204.484C122.141 203.984 122.867 203.484 123.633 202.984C124.414 202.484 125.195 202.031 125.977 201.625C126.758 201.203 127.523 200.844 128.273 200.547C129.039 200.234 129.742 200.016 130.383 199.891L131.016 207.672C128.766 207.672 126.828 207.867 125.203 208.258C123.594 208.648 122.25 209.078 121.172 209.547C119.922 210.094 118.867 210.711 118.008 211.398L116.367 220.727L123.586 220.633ZM152.18 220.68L151.406 226.68L133.922 226.188L133.172 221.922L140.273 221.477L140.227 208.094L132.914 207.859V204.109L147.656 203.148L145.875 221.102L152.18 220.68ZM147.656 197.641C147.656 198.016 147.539 198.375 147.305 198.719C147.086 199.047 146.781 199.336 146.391 199.586C146 199.836 145.539 200.039 145.008 200.195C144.492 200.336 143.938 200.406 143.344 200.406C142.734 200.406 142.164 200.336 141.633 200.195C141.117 200.039 140.664 199.836 140.273 199.586C139.883 199.336 139.57 199.047 139.336 198.719C139.117 198.375 139.008 198.016 139.008 197.641C139.008 197.25 139.117 196.883 139.336 196.539C139.57 196.18 139.883 195.875 140.273 195.625C140.664 195.375 141.117 195.18 141.633 195.039C142.164 194.883 142.734 194.805 143.344 194.805C143.938 194.805 144.492 194.883 145.008 195.039C145.539 195.18 146 195.375 146.391 195.625C146.781 195.875 147.086 196.18 147.305 196.539C147.539 196.883 147.656 197.25 147.656 197.641ZM163.641 216.977C163.641 217.82 163.758 218.555 163.992 219.18C164.242 219.805 164.578 220.328 165 220.75C165.422 221.156 165.914 221.461 166.477 221.664C167.055 221.867 167.672 221.969 168.328 221.969C168.984 221.969 169.672 221.867 170.391 221.664C171.109 221.461 171.82 221.156 172.523 220.75C173.227 220.344 173.914 219.836 174.586 219.227C175.258 218.617 175.883 217.914 176.461 217.117C176.617 217.68 176.781 218.297 176.953 218.969C177.109 219.547 177.281 220.219 177.469 220.984C177.672 221.734 177.891 222.539 178.125 223.398C177.188 224.102 176.266 224.68 175.359 225.133C174.453 225.586 173.57 225.945 172.711 226.211C171.867 226.477 171.055 226.656 170.273 226.75C169.492 226.859 168.766 226.914 168.094 226.914C166.344 226.914 164.859 226.68 163.641 226.211C162.438 225.758 161.43 225.133 160.617 224.336C159.82 223.523 159.195 222.578 158.742 221.5C158.305 220.406 157.977 219.234 157.758 217.984C157.539 216.719 157.406 215.406 157.359 214.047C157.312 212.672 157.289 211.312 157.289 209.969C157.289 209.625 157.297 209.234 157.312 208.797C157.328 208.359 157.352 207.898 157.383 207.414L151.781 207.578L152.25 202.68L157.922 202.234C158.078 200.906 158.242 199.609 158.414 198.344C158.602 197.078 158.766 195.938 158.906 194.922C159.078 193.734 159.242 192.609 159.398 191.547L166.992 192.109C166.805 192.953 166.617 193.875 166.43 194.875C166.258 195.734 166.062 196.742 165.844 197.898C165.641 199.039 165.43 200.281 165.211 201.625L175.383 200.805L175.242 206.852L164.391 207.18C164.156 208.93 163.969 210.641 163.828 212.312C163.703 213.969 163.641 215.523 163.641 216.977ZM206.508 217.984C205.914 219.531 205.086 220.875 204.023 222.016C202.977 223.141 201.789 224.078 200.461 224.828C199.133 225.562 197.727 226.109 196.242 226.469C194.758 226.828 193.297 227.008 191.859 227.008C189.859 227.008 188.078 226.695 186.516 226.07C184.953 225.445 183.625 224.602 182.531 223.539C181.438 222.477 180.578 221.234 179.953 219.812C179.344 218.375 178.992 216.852 178.898 215.242C178.898 212.789 179.305 210.695 180.117 208.961C180.945 207.211 182.062 205.789 183.469 204.695C184.891 203.602 186.547 202.805 188.438 202.305C190.328 201.789 192.336 201.531 194.461 201.531C195.242 201.531 196.047 201.586 196.875 201.695C197.719 201.805 198.539 202 199.336 202.281C200.133 202.562 200.891 202.953 201.609 203.453C202.344 203.938 203 204.57 203.578 205.352C204.172 206.117 204.672 207.039 205.078 208.117C205.484 209.195 205.766 210.469 205.922 211.938L186.68 215.383C186.805 216.461 187.023 217.516 187.336 218.547C187.664 219.578 188.102 220.492 188.648 221.289C189.195 222.07 189.867 222.695 190.664 223.164C191.477 223.617 192.438 223.828 193.547 223.797C194.75 223.656 195.812 223.297 196.734 222.719C197.125 222.469 197.5 222.164 197.859 221.805C198.219 221.43 198.531 220.984 198.797 220.469C199.062 219.953 199.258 219.352 199.383 218.664C199.508 217.977 199.531 217.188 199.453 216.297L206.508 217.984ZM197.625 210.438C197.562 209.703 197.43 209.062 197.227 208.516C197.023 207.969 196.766 207.5 196.453 207.109C196.156 206.719 195.82 206.398 195.445 206.148C195.086 205.883 194.719 205.672 194.344 205.516C193.469 205.156 192.484 204.992 191.391 205.023C190.359 205.148 189.523 205.445 188.883 205.914C188.242 206.367 187.742 206.938 187.383 207.625C187.039 208.297 186.805 209.047 186.68 209.875C186.555 210.703 186.492 211.547 186.492 212.406L197.625 210.438ZM242.883 220.586L242.648 225.367L224.227 226.914V219.461L230.273 219.859L229.734 199.844L224.227 200.125L225.047 192.016L240.82 192.742L255.281 221.242V199.305L250.289 199.445V192.016L267.938 193.445L267.609 198.836L262.289 199.023L259.125 226.914L254.508 227.828L236.555 199.938L234.727 220.094L242.883 220.586ZM300.328 226.539H287.648L287.953 222.695C286.766 223.633 285.602 224.352 284.461 224.852C283.336 225.352 282.328 225.719 281.438 225.953C280.391 226.234 279.391 226.391 278.438 226.422C276.953 226.422 275.719 226.234 274.734 225.859C273.75 225.469 272.961 224.93 272.367 224.242C271.789 223.539 271.375 222.703 271.125 221.734C270.875 220.75 270.75 219.656 270.75 218.453C270.75 217.812 270.758 217.25 270.773 216.766C270.789 216.281 270.812 215.82 270.844 215.383C270.891 214.93 270.938 214.469 270.984 214C271.047 213.531 271.117 212.992 271.195 212.383C271.289 211.773 271.383 211.07 271.477 210.273C271.586 209.461 271.711 208.492 271.852 207.367L266.859 207.672L267.586 202.047L279.164 202.539C278.977 204.273 278.812 205.781 278.672 207.062C278.531 208.328 278.406 209.43 278.297 210.367C278.203 211.305 278.117 212.102 278.039 212.758C277.977 213.414 277.922 214 277.875 214.516C277.828 215.016 277.797 215.469 277.781 215.875C277.766 216.266 277.758 216.68 277.758 217.117C277.758 217.82 277.812 218.484 277.922 219.109C278.031 219.734 278.219 220.281 278.484 220.75C278.766 221.219 279.125 221.586 279.562 221.852C280.016 222.117 280.57 222.25 281.227 222.25C282.039 222.203 282.867 221.977 283.711 221.57C284.43 221.227 285.195 220.688 286.008 219.953C286.836 219.219 287.625 218.164 288.375 216.789L289.102 206.898L283.805 207.086L284.297 202.047L300.328 202.633V206.406L295.008 206.664L295.289 221.969L300.328 222.391V226.539ZM334.969 220.914L334.289 226.539L322.242 226.047C322.43 224.219 322.594 222.648 322.734 221.336C322.875 220.023 322.992 218.906 323.086 217.984C323.195 217.047 323.281 216.266 323.344 215.641C323.422 215 323.477 214.445 323.508 213.977C323.555 213.492 323.586 213.055 323.602 212.664C323.617 212.273 323.625 211.852 323.625 211.398C323.625 210.695 323.539 210.039 323.367 209.43C323.211 208.805 322.969 208.258 322.641 207.789C322.312 207.32 321.898 206.953 321.398 206.688C320.914 206.406 320.344 206.25 319.688 206.219C319.297 206.266 318.859 206.375 318.375 206.547C317.969 206.688 317.477 206.898 316.898 207.18C316.336 207.445 315.703 207.828 315 208.328L314.039 221.734L319.312 221.477L318.891 226.539L302.789 226.422V222.156L307.641 221.969L307.312 207.227L302.32 207.367V203.102L315.469 201.414L315.234 204.438C316.203 203.891 317.117 203.469 317.977 203.172C318.852 202.875 319.625 202.641 320.297 202.469C321.078 202.297 321.805 202.172 322.477 202.094C324.195 202.094 325.625 202.352 326.766 202.867C327.906 203.383 328.812 204.102 329.484 205.023C330.531 204.32 331.547 203.773 332.531 203.383C333.516 202.992 334.391 202.703 335.156 202.516C336.047 202.297 336.891 202.156 337.688 202.094C339.25 202.094 340.578 202.305 341.672 202.727C342.766 203.148 343.648 203.742 344.32 204.508C345.008 205.258 345.508 206.172 345.82 207.25C346.133 208.312 346.289 209.492 346.289 210.789C346.289 211.32 346.281 211.797 346.266 212.219C346.25 212.625 346.219 213.031 346.172 213.438C346.141 213.828 346.094 214.242 346.031 214.68C345.984 215.117 345.922 215.633 345.844 216.227C345.766 216.82 345.672 217.516 345.562 218.312C345.453 219.109 345.328 220.07 345.188 221.195L350.227 220.914L349.5 226.539L337.453 226.047C337.641 224.219 337.805 222.648 337.945 221.336C338.086 220.023 338.203 218.906 338.297 217.984C338.406 217.047 338.492 216.266 338.555 215.641C338.633 215 338.688 214.445 338.719 213.977C338.766 213.492 338.797 213.055 338.812 212.664C338.828 212.273 338.836 211.852 338.836 211.398C338.836 210.695 338.75 210.039 338.578 209.43C338.422 208.805 338.18 208.258 337.852 207.789C337.539 207.32 337.133 206.953 336.633 206.688C336.148 206.406 335.578 206.25 334.922 206.219C334.594 206.266 334.219 206.367 333.797 206.523C333.438 206.648 333 206.836 332.484 207.086C331.984 207.336 331.414 207.672 330.773 208.094C330.945 208.953 331.031 209.836 331.031 210.742C331.031 211.289 331.023 211.773 331.008 212.195C330.992 212.617 330.961 213.031 330.914 213.438C330.883 213.828 330.836 214.242 330.773 214.68C330.727 215.102 330.664 215.609 330.586 216.203C330.508 216.797 330.414 217.5 330.305 218.312C330.211 219.109 330.102 220.07 329.977 221.195L334.969 220.914ZM379.945 213.367C379.945 215.055 379.727 216.562 379.289 217.891C378.852 219.219 378.258 220.398 377.508 221.43C376.758 222.445 375.891 223.32 374.906 224.055C373.922 224.773 372.883 225.367 371.789 225.836C370.711 226.289 369.609 226.617 368.484 226.82C367.359 227.039 366.289 227.148 365.273 227.148C363.727 227.148 362.219 226.883 360.75 226.352C359.297 225.836 357.992 225.039 356.836 223.961C355.695 222.883 354.766 221.523 354.047 219.883C353.344 218.242 352.969 216.297 352.922 214.047C352.922 213.141 352.938 212.172 352.969 211.141C353.016 210.109 353.07 209.062 353.133 208C353.195 206.938 353.266 205.883 353.344 204.836C353.422 203.773 353.508 202.758 353.602 201.789C353.789 199.539 354.016 197.273 354.281 194.992L349.289 195.227L349.617 190.469L363.047 191.734C362.844 192.734 362.625 193.828 362.391 195.016C362.188 196.031 361.961 197.211 361.711 198.555C361.477 199.883 361.25 201.305 361.031 202.82C362.109 202.195 363.219 201.711 364.359 201.367C365.516 201.023 366.695 200.852 367.898 200.852C369.586 200.852 371.164 201.102 372.633 201.602C374.102 202.086 375.375 202.844 376.453 203.875C377.547 204.891 378.398 206.188 379.008 207.766C379.633 209.328 379.945 211.195 379.945 213.367ZM359.789 215.969C359.789 217.062 359.945 218.094 360.258 219.062C360.57 220.016 360.984 220.852 361.5 221.57C362.031 222.289 362.641 222.859 363.328 223.281C364.031 223.688 364.758 223.891 365.508 223.891C367.43 223.891 368.891 223.039 369.891 221.336C370.891 219.633 371.414 216.977 371.461 213.367C371.477 211.555 371.312 210.086 370.969 208.961C370.625 207.82 370.18 206.93 369.633 206.289C369.102 205.633 368.516 205.188 367.875 204.953C367.234 204.719 366.641 204.586 366.094 204.555C365.688 204.539 365.242 204.594 364.758 204.719C364.273 204.844 363.773 205.039 363.258 205.305C362.742 205.555 362.234 205.883 361.734 206.289C361.25 206.68 360.797 207.141 360.375 207.672C360.203 209.125 360.062 210.555 359.953 211.961C359.844 213.367 359.789 214.703 359.789 215.969ZM409.945 217.984C409.352 219.531 408.523 220.875 407.461 222.016C406.414 223.141 405.227 224.078 403.898 224.828C402.57 225.562 401.164 226.109 399.68 226.469C398.195 226.828 396.734 227.008 395.297 227.008C393.297 227.008 391.516 226.695 389.953 226.07C388.391 225.445 387.062 224.602 385.969 223.539C384.875 222.477 384.016 221.234 383.391 219.812C382.781 218.375 382.43 216.852 382.336 215.242C382.336 212.789 382.742 210.695 383.555 208.961C384.383 207.211 385.5 205.789 386.906 204.695C388.328 203.602 389.984 202.805 391.875 202.305C393.766 201.789 395.773 201.531 397.898 201.531C398.68 201.531 399.484 201.586 400.312 201.695C401.156 201.805 401.977 202 402.773 202.281C403.57 202.562 404.328 202.953 405.047 203.453C405.781 203.938 406.438 204.57 407.016 205.352C407.609 206.117 408.109 207.039 408.516 208.117C408.922 209.195 409.203 210.469 409.359 211.938L390.117 215.383C390.242 216.461 390.461 217.516 390.773 218.547C391.102 219.578 391.539 220.492 392.086 221.289C392.633 222.07 393.305 222.695 394.102 223.164C394.914 223.617 395.875 223.828 396.984 223.797C398.188 223.656 399.25 223.297 400.172 222.719C400.562 222.469 400.938 222.164 401.297 221.805C401.656 221.43 401.969 220.984 402.234 220.469C402.5 219.953 402.695 219.352 402.82 218.664C402.945 217.977 402.969 217.188 402.891 216.297L409.945 217.984ZM401.062 210.438C401 209.703 400.867 209.062 400.664 208.516C400.461 207.969 400.203 207.5 399.891 207.109C399.594 206.719 399.258 206.398 398.883 206.148C398.523 205.883 398.156 205.672 397.781 205.516C396.906 205.156 395.922 204.992 394.828 205.023C393.797 205.148 392.961 205.445 392.32 205.914C391.68 206.367 391.18 206.938 390.82 207.625C390.477 208.297 390.242 209.047 390.117 209.875C389.992 210.703 389.93 211.547 389.93 212.406L401.062 210.438ZM431.18 220.633V224.57L413.133 226.867L412.453 220.867L418.453 220.82L418.734 207.812L411.445 207.273V203.289L426.609 201.953L425.836 207.18C426.18 206.82 426.633 206.406 427.195 205.938C427.758 205.453 428.375 204.969 429.047 204.484C429.734 203.984 430.461 203.484 431.227 202.984C432.008 202.484 432.789 202.031 433.57 201.625C434.352 201.203 435.117 200.844 435.867 200.547C436.633 200.234 437.336 200.016 437.977 199.891L438.609 207.672C436.359 207.672 434.422 207.867 432.797 208.258C431.188 208.648 429.844 209.078 428.766 209.547C427.516 210.094 426.461 210.711 425.602 211.398L423.961 220.727L431.18 220.633ZM466.453 202L464.133 209.969C463.367 209.562 462.516 209.164 461.578 208.773C460.641 208.383 459.672 208.039 458.672 207.742C457.688 207.445 456.695 207.211 455.695 207.039C454.711 206.852 453.781 206.758 452.906 206.758C451.688 206.758 450.695 206.945 449.93 207.32C449.164 207.68 448.781 208.211 448.781 208.914C448.781 209.367 448.953 209.758 449.297 210.086C449.641 210.398 450.156 210.695 450.844 210.977C451.547 211.258 452.422 211.531 453.469 211.797C454.531 212.062 455.766 212.367 457.172 212.711C458.438 213.008 459.625 213.344 460.734 213.719C461.844 214.078 462.805 214.539 463.617 215.102C464.43 215.664 465.07 216.352 465.539 217.164C466.008 217.977 466.242 218.969 466.242 220.141C466.242 221.391 465.977 222.445 465.445 223.305C464.93 224.164 464.203 224.867 463.266 225.414C462.328 225.945 461.219 226.328 459.938 226.562C458.672 226.797 457.289 226.914 455.789 226.914C453.961 226.914 452.391 226.773 451.078 226.492C449.781 226.211 448.703 225.906 447.844 225.578C447 225.234 446.352 224.922 445.898 224.641C445.461 224.359 445.188 224.219 445.078 224.219L444.609 228.016L439.664 226.328L442.336 218.711C442.82 219.023 443.406 219.352 444.094 219.695C444.781 220.039 445.516 220.383 446.297 220.727C447.078 221.07 447.891 221.406 448.734 221.734C449.594 222.047 450.438 222.328 451.266 222.578C452.094 222.812 452.883 223 453.633 223.141C454.383 223.281 455.055 223.352 455.648 223.352C455.93 223.352 456.242 223.328 456.586 223.281C456.93 223.234 457.25 223.148 457.547 223.023C457.859 222.883 458.117 222.695 458.32 222.461C458.523 222.211 458.625 221.883 458.625 221.477C458.625 220.977 458.445 220.547 458.086 220.188C457.727 219.812 457.289 219.492 456.773 219.227C456.258 218.961 455.703 218.742 455.109 218.57C454.531 218.383 454.008 218.219 453.539 218.078C452.789 217.875 451.961 217.641 451.055 217.375C450.148 217.094 449.227 216.773 448.289 216.414C447.352 216.039 446.445 215.617 445.57 215.148C444.695 214.68 443.914 214.141 443.227 213.531C442.539 212.922 441.984 212.242 441.562 211.492C441.156 210.742 440.953 209.898 440.953 208.961C440.953 208.008 441.18 207.109 441.633 206.266C442.086 205.406 442.742 204.656 443.602 204.016C444.477 203.375 445.547 202.867 446.812 202.492C448.094 202.102 449.547 201.906 451.172 201.906C452.703 201.906 454.102 202.055 455.367 202.352C456.648 202.648 457.758 202.977 458.695 203.336C459.789 203.742 460.773 204.211 461.648 204.742L461.555 201.039L466.453 202Z" fill="black"/>
<path d="M97.5234 219.625L98.5233 219.641L98.5386 218.673L97.5718 218.626L97.5234 219.625ZM97.4297 225.578L97.4663 226.577L98.4146 226.543L98.4296 225.594L97.4297 225.578ZM80.8125 226.188H79.8125V227.225L80.8491 227.187L80.8125 226.188ZM80.8125 218.805L80.8718 217.806L79.8125 217.744V218.805H80.8125ZM83.1797 218.945L83.1204 219.944L84.4282 220.021L84.1582 218.739L83.1797 218.945ZM80.0156 203.922L80.9942 203.716L80.2234 200.056L79.0648 203.612L80.0156 203.922ZM74.9297 219.531L73.9789 219.221L73.5719 220.471L74.8843 220.53L74.9297 219.531ZM76.9922 219.625L77.9919 219.649L78.015 218.67L77.0376 218.626L76.9922 219.625ZM76.8516 225.578L76.8882 226.577L77.829 226.543L77.8513 225.602L76.8516 225.578ZM60.2344 226.188H59.2344V227.225L60.271 227.187L60.2344 226.188ZM60.2344 218.805L60.2886 217.806L59.2344 217.749V218.805H60.2344ZM65.4141 219.086L65.3598 220.084L66.7485 220.16L66.3779 218.819L65.4141 219.086ZM59.9062 199.164L60.8701 198.898L60.6607 198.14L59.8752 198.165L59.9062 199.164ZM55.3828 199.305H54.3828V200.336L55.4139 200.304L55.3828 199.305ZM55.3828 191.922L55.4232 190.923L54.3828 190.881V191.922H55.3828ZM75.6797 192.742L76.6794 192.766L76.7026 191.783L75.7201 191.743L75.6797 192.742ZM75.5391 198.695L75.5731 199.695L76.5165 199.663L76.5388 198.719L75.5391 198.695ZM67.2891 198.977L67.255 197.977L66.1375 198.015L66.2996 199.122L67.2891 198.977ZM69.6797 215.289L68.6903 215.434L69.1408 218.508L70.5679 215.748L69.6797 215.289ZM78.5156 198.203V197.203H77.907L77.6274 197.744L78.5156 198.203ZM82.5 198.203L83.4476 197.884L83.2181 197.203H82.5V198.203ZM87.8438 214.047L86.8962 214.366L87.8017 217.051L88.782 214.393L87.8438 214.047ZM93.5391 198.602L94.4773 198.948L95.0192 197.478L93.458 197.605L93.5391 198.602ZM86.625 199.164L85.6263 199.215L85.6786 200.244L86.7061 200.161L86.625 199.164ZM86.25 191.781L86.2408 190.781L85.1984 190.791L85.2513 191.832L86.25 191.781ZM106.547 191.594L107.547 191.57L107.523 190.585L106.538 190.594L106.547 191.594ZM106.688 197.547L106.766 198.544L107.71 198.469L107.687 197.523L106.688 197.547ZM98.9766 198.156L98.8978 197.159L98.2283 197.212L98.024 197.852L98.9766 198.156ZM92.2031 219.367L91.2505 219.063L90.8545 220.303L92.1547 220.366L92.2031 219.367ZM96.5236 219.609L96.4298 225.562L98.4296 225.594L98.5233 219.641L96.5236 219.609ZM97.393 224.579L80.7759 225.188L80.8491 227.187L97.4663 226.577L97.393 224.579ZM81.8125 226.188V218.805H79.8125V226.188H81.8125ZM80.7532 219.803L83.1204 219.944L83.239 217.947L80.8718 217.806L80.7532 219.803ZM84.1582 218.739L80.9942 203.716L79.0371 204.128L82.2012 219.151L84.1582 218.739ZM79.0648 203.612L73.9789 219.221L75.8805 219.841L80.9664 204.232L79.0648 203.612ZM74.8843 220.53L76.9468 220.624L77.0376 218.626L74.9751 218.532L74.8843 220.53ZM75.9925 219.601L75.8518 225.555L77.8513 225.602L77.9919 219.649L75.9925 219.601ZM76.8149 224.579L60.1977 225.188L60.271 227.187L76.8882 226.577L76.8149 224.579ZM61.2344 226.188V218.805H59.2344V226.188H61.2344ZM60.1802 219.803L65.3598 220.084L65.4683 218.087L60.2886 217.806L60.1802 219.803ZM66.3779 218.819L60.8701 198.898L58.9424 199.431L64.4502 219.352L66.3779 218.819ZM59.8752 198.165L55.3517 198.305L55.4139 200.304L59.9373 200.164L59.8752 198.165ZM56.3828 199.305V191.922H54.3828V199.305H56.3828ZM55.3424 192.921L75.6393 193.741L75.7201 191.743L55.4232 190.923L55.3424 192.921ZM74.68 192.719L74.5393 198.672L76.5388 198.719L76.6794 192.766L74.68 192.719ZM75.505 197.696L67.255 197.977L67.3231 199.976L75.5731 199.695L75.505 197.696ZM66.2996 199.122L68.6903 215.434L70.6691 215.144L68.2785 198.832L66.2996 199.122ZM70.5679 215.748L79.4039 198.662L77.6274 197.744L68.7914 214.83L70.5679 215.748ZM78.5156 199.203H82.5V197.203H78.5156V199.203ZM81.5524 198.523L86.8962 214.366L88.7913 213.727L83.4476 197.884L81.5524 198.523ZM88.782 214.393L94.4773 198.948L92.6008 198.256L86.9055 213.701L88.782 214.393ZM93.458 197.605L86.5439 198.167L86.7061 200.161L93.6201 199.598L93.458 197.605ZM87.6237 199.113L87.2487 191.731L85.2513 191.832L85.6263 199.215L87.6237 199.113ZM86.2592 192.781L106.556 192.594L106.538 190.594L86.2408 190.781L86.2592 192.781ZM105.547 191.617L105.688 197.57L107.687 197.523L107.547 191.57L105.547 191.617ZM106.609 196.55L98.8978 197.159L99.0553 199.153L106.766 198.544L106.609 196.55ZM98.024 197.852L91.2505 219.063L93.1557 219.671L99.9292 198.46L98.024 197.852ZM92.1547 220.366L97.475 220.624L97.5718 218.626L92.2515 218.368L92.1547 220.366ZM123.586 220.633H124.586V219.62L123.573 219.633L123.586 220.633ZM123.586 224.57L123.712 225.562L124.586 225.451V224.57H123.586ZM105.539 226.867L104.545 226.98L104.66 227.987L105.665 227.859L105.539 226.867ZM104.859 220.867L104.852 219.867L103.741 219.876L103.866 220.98L104.859 220.867ZM110.859 220.82L110.867 221.82L111.838 221.813L111.859 220.842L110.859 220.82ZM111.141 207.812L112.14 207.834L112.161 206.885L111.214 206.815L111.141 207.812ZM103.852 207.273H102.852V208.202L103.778 208.271L103.852 207.273ZM103.852 203.289L103.764 202.293L102.852 202.373V203.289H103.852ZM119.016 201.953L120.005 202.1L120.19 200.846L118.928 200.957L119.016 201.953ZM118.242 207.18L117.253 207.033L116.793 210.141L118.965 207.871L118.242 207.18ZM119.602 205.938L120.242 206.706L120.248 206.701L120.254 206.695L119.602 205.938ZM121.453 204.484L122.038 205.296L122.041 205.293L121.453 204.484ZM123.633 202.984L123.094 202.142L123.086 202.147L123.633 202.984ZM125.977 201.625L126.438 202.512L126.445 202.509L126.452 202.505L125.977 201.625ZM128.273 200.547L128.642 201.477L128.651 201.473L128.273 200.547ZM130.383 199.891L131.38 199.81L131.289 198.695L130.191 198.909L130.383 199.891ZM131.016 207.672V208.672H132.1L132.012 207.591L131.016 207.672ZM125.203 208.258L124.969 207.286L124.967 207.286L125.203 208.258ZM121.172 209.547L120.773 208.63L120.771 208.631L121.172 209.547ZM118.008 211.398L117.383 210.618L117.088 210.853L117.023 211.225L118.008 211.398ZM116.367 220.727L115.382 220.553L115.173 221.742L116.38 221.726L116.367 220.727ZM122.586 220.633V224.57H124.586V220.633H122.586ZM123.46 223.578L105.413 225.875L105.665 227.859L123.712 225.562L123.46 223.578ZM106.533 226.755L105.853 220.755L103.866 220.98L104.545 226.98L106.533 226.755ZM104.867 221.867L110.867 221.82L110.852 219.82L104.852 219.867L104.867 221.867ZM111.859 220.842L112.14 207.834L110.141 207.791L109.86 220.799L111.859 220.842ZM111.214 206.815L103.925 206.276L103.778 208.271L111.067 208.81L111.214 206.815ZM104.852 207.273V203.289H102.852V207.273H104.852ZM103.939 204.285L119.103 202.949L118.928 200.957L103.764 202.293L103.939 204.285ZM118.026 201.807L117.253 207.033L119.231 207.326L120.005 202.1L118.026 201.807ZM118.965 207.871C119.274 207.548 119.696 207.16 120.242 206.706L118.961 205.169C118.382 205.652 117.898 206.092 117.52 206.488L118.965 207.871ZM120.254 206.695C120.792 206.232 121.387 205.765 122.038 205.296L120.868 203.673C120.176 204.173 119.536 204.675 118.949 205.18L120.254 206.695ZM122.041 205.293C122.714 204.804 123.427 204.313 124.18 203.822L123.086 202.147C122.307 202.656 121.567 203.165 120.865 203.676L122.041 205.293ZM124.172 203.827C124.929 203.342 125.685 202.904 126.438 202.512L125.515 200.738C124.706 201.159 123.899 201.627 123.094 202.142L124.172 203.827ZM126.452 202.505C127.202 202.1 127.932 201.758 128.641 201.477L127.905 199.617C127.115 199.93 126.314 200.306 125.501 200.745L126.452 202.505ZM128.651 201.473C129.372 201.179 130.012 200.982 130.574 200.872L130.191 198.909C129.473 199.049 128.706 199.29 127.896 199.621L128.651 201.473ZM129.386 199.972L130.019 207.753L132.012 207.591L131.38 199.81L129.386 199.972ZM131.016 206.672C128.712 206.672 126.692 206.871 124.969 207.286L125.437 209.23C126.964 208.863 128.819 208.672 131.016 208.672V206.672ZM124.967 207.286C123.323 207.685 121.92 208.131 120.773 208.63L121.571 210.464C122.58 210.025 123.865 209.612 125.439 209.23L124.967 207.286ZM120.771 208.631C119.459 209.205 118.325 209.864 117.383 210.618L118.633 212.179C119.409 211.558 120.385 210.983 121.573 210.463L120.771 208.631ZM117.023 211.225L115.382 220.553L117.352 220.9L118.993 211.572L117.023 211.225ZM116.38 221.726L123.599 221.633L123.573 219.633L116.354 219.727L116.38 221.726ZM152.18 220.68L153.171 220.808L153.327 219.601L152.113 219.682L152.18 220.68ZM151.406 226.68L151.378 227.679L152.282 227.705L152.398 226.808L151.406 226.68ZM133.922 226.188L132.937 226.361L133.078 227.164L133.894 227.187L133.922 226.188ZM133.172 221.922L133.109 220.924L131.993 220.994L132.187 222.095L133.172 221.922ZM140.273 221.477L140.336 222.475L141.277 222.416L141.273 221.473L140.273 221.477ZM140.227 208.094L141.227 208.09L141.223 207.125L140.259 207.094L140.227 208.094ZM132.914 207.859H131.914V208.828L132.882 208.859L132.914 207.859ZM132.914 204.109L132.849 203.111L131.914 203.172V204.109H132.914ZM147.656 203.148L148.651 203.247L148.768 202.074L147.591 202.151L147.656 203.148ZM145.875 221.102L144.88 221.003L144.763 222.178L145.942 222.099L145.875 221.102ZM147.305 198.719L146.478 198.155L146.473 198.164L147.305 198.719ZM145.008 200.195L145.271 201.16L145.28 201.157L145.29 201.155L145.008 200.195ZM141.633 200.195L141.343 201.152L141.36 201.157L141.377 201.162L141.633 200.195ZM139.336 198.719L138.492 199.256L138.507 199.278L138.522 199.3L139.336 198.719ZM139.336 196.539L138.498 195.993L138.492 196.002L139.336 196.539ZM141.633 195.039L141.896 196.004L141.905 196.001L141.915 195.998L141.633 195.039ZM145.008 195.039L144.718 195.996L144.735 196.001L144.752 196.006L145.008 195.039ZM147.305 196.539L146.45 197.059L146.464 197.081L146.478 197.102L147.305 196.539ZM151.188 220.552L150.414 226.552L152.398 226.808L153.171 220.808L151.188 220.552ZM151.434 225.68L133.95 225.188L133.894 227.187L151.378 227.679L151.434 225.68ZM134.907 226.014L134.157 221.749L132.187 222.095L132.937 226.361L134.907 226.014ZM133.234 222.92L140.336 222.475L140.211 220.479L133.109 220.924L133.234 222.92ZM141.273 221.473L141.227 208.09L139.227 208.097L139.273 221.48L141.273 221.473ZM140.259 207.094L132.946 206.86L132.882 208.859L140.195 209.093L140.259 207.094ZM133.914 207.859V204.109H131.914V207.859H133.914ZM132.979 205.107L147.721 204.146L147.591 202.151L132.849 203.111L132.979 205.107ZM146.661 203.05L144.88 221.003L146.87 221.2L148.651 203.247L146.661 203.05ZM145.942 222.099L152.246 221.677L152.113 219.682L145.808 220.104L145.942 222.099ZM146.656 197.641C146.656 197.793 146.613 197.959 146.478 198.155L148.131 199.282C148.466 198.791 148.656 198.238 148.656 197.641H146.656ZM146.473 198.164C146.343 198.359 146.146 198.555 145.852 198.744L146.93 200.428C147.417 200.117 147.829 199.735 148.137 199.273L146.473 198.164ZM145.852 198.744C145.554 198.934 145.183 199.101 144.726 199.236L145.29 201.155C145.895 200.977 146.446 200.738 146.93 200.428L145.852 198.744ZM144.745 199.231C144.324 199.345 143.858 199.406 143.344 199.406V201.406C144.017 201.406 144.661 201.327 145.271 201.16L144.745 199.231ZM143.344 199.406C142.811 199.406 142.328 199.345 141.889 199.229L141.377 201.162C142 201.327 142.657 201.406 143.344 201.406V199.406ZM141.923 199.238C141.481 199.104 141.114 198.937 140.812 198.744L139.734 200.428C140.214 200.735 140.753 200.974 141.343 201.152L141.923 199.238ZM140.812 198.744C140.513 198.552 140.3 198.348 140.15 198.138L138.522 199.3C138.841 199.746 139.252 200.12 139.734 200.428L140.812 198.744ZM140.18 198.182C140.054 197.984 140.008 197.809 140.008 197.641H138.008C138.008 198.222 138.181 198.766 138.492 199.256L140.18 198.182ZM140.008 197.641C140.008 197.449 140.058 197.267 140.18 197.076L138.492 196.002C138.176 196.499 138.008 197.051 138.008 197.641H140.008ZM140.174 197.085C140.324 196.854 140.531 196.647 140.812 196.467L139.734 194.783C139.234 195.103 138.816 195.505 138.498 195.993L140.174 197.085ZM140.812 196.467C141.106 196.279 141.463 196.122 141.896 196.004L141.37 194.074C140.771 194.238 140.222 194.471 139.734 194.783L140.812 196.467ZM141.915 195.998C142.346 195.872 142.82 195.805 143.344 195.805V193.805C142.648 193.805 141.982 193.894 141.351 194.08L141.915 195.998ZM143.344 195.805C143.849 195.805 144.305 195.871 144.718 195.996L145.298 194.082C144.679 193.895 144.026 193.805 143.344 193.805V195.805ZM144.752 196.006C145.201 196.125 145.563 196.282 145.852 196.467L146.93 194.783C146.437 194.468 145.877 194.235 145.264 194.072L144.752 196.006ZM145.852 196.467C146.127 196.644 146.319 196.843 146.45 197.059L148.159 196.019C147.853 195.517 147.435 195.106 146.93 194.783L145.852 196.467ZM146.478 197.102C146.607 197.291 146.656 197.464 146.656 197.641H148.656C148.656 197.036 148.471 196.474 148.131 195.976L146.478 197.102ZM163.992 219.18L163.056 219.531L163.06 219.541L163.064 219.551L163.992 219.18ZM165 220.75L164.293 221.457L164.3 221.464L164.306 221.47L165 220.75ZM166.477 221.664L166.137 222.605L166.145 222.608L166.477 221.664ZM176.461 217.117L177.424 216.85L176.869 214.851L175.652 216.53L176.461 217.117ZM176.953 218.969L175.984 219.217L175.988 219.23L176.953 218.969ZM177.469 220.984L176.497 221.222L176.5 221.234L176.504 221.246L177.469 220.984ZM178.125 223.398L178.725 224.198L179.269 223.791L179.09 223.135L178.125 223.398ZM172.711 226.211L172.416 225.256L172.411 225.257L172.711 226.211ZM170.273 226.75L170.154 225.757L170.145 225.758L170.135 225.76L170.273 226.75ZM163.641 226.211L164 225.278L163.993 225.275L163.641 226.211ZM160.617 224.336L159.903 225.036L159.91 225.043L159.917 225.05L160.617 224.336ZM158.742 221.5L157.814 221.871L157.817 221.879L157.82 221.887L158.742 221.5ZM157.758 217.984L156.772 218.155L156.773 218.157L157.758 217.984ZM157.359 214.047L156.36 214.081L156.36 214.081L157.359 214.047ZM157.383 207.414L158.381 207.478L158.451 206.382L157.354 206.414L157.383 207.414ZM151.781 207.578L150.786 207.483L150.678 208.611L151.811 208.578L151.781 207.578ZM152.25 202.68L152.172 201.683L151.335 201.748L151.255 202.584L152.25 202.68ZM157.922 202.234L158 203.231L158.819 203.167L158.915 202.351L157.922 202.234ZM158.414 198.344L157.425 198.197L157.423 198.209L158.414 198.344ZM158.906 194.922L157.917 194.779L157.916 194.785L158.906 194.922ZM159.398 191.547L159.472 190.55L158.544 190.481L158.409 191.401L159.398 191.547ZM166.992 192.109L167.968 192.326L168.219 191.198L167.066 191.112L166.992 192.109ZM166.43 194.875L167.41 195.071L167.413 195.059L166.43 194.875ZM165.844 197.898L164.861 197.713L164.859 197.723L165.844 197.898ZM165.211 201.625L164.224 201.464L164.019 202.724L165.291 202.622L165.211 201.625ZM175.383 200.805L176.383 200.828L176.408 199.719L175.302 199.808L175.383 200.805ZM175.242 206.852L175.272 207.851L176.22 207.822L176.242 206.875L175.242 206.852ZM164.391 207.18L164.36 206.18L163.512 206.206L163.399 207.047L164.391 207.18ZM163.828 212.312L162.832 212.229L162.831 212.237L163.828 212.312ZM162.641 216.977C162.641 217.91 162.77 218.768 163.056 219.531L164.929 218.829C164.746 218.341 164.641 217.731 164.641 216.977H162.641ZM163.064 219.551C163.358 220.286 163.764 220.928 164.293 221.457L165.707 220.043C165.393 219.728 165.127 219.324 164.921 218.808L163.064 219.551ZM164.306 221.47C164.832 221.976 165.445 222.355 166.137 222.605L166.816 220.724C166.383 220.567 166.012 220.336 165.694 220.03L164.306 221.47ZM166.145 222.608C166.837 222.851 167.567 222.969 168.328 222.969V220.969C167.777 220.969 167.272 220.884 166.808 220.721L166.145 222.608ZM168.328 222.969C169.088 222.969 169.867 222.851 170.663 222.626L170.119 220.702C169.476 220.883 168.881 220.969 168.328 220.969V222.969ZM170.663 222.626C171.468 222.399 172.255 222.06 173.024 221.616L172.023 219.884C171.386 220.252 170.751 220.523 170.119 220.702L170.663 222.626ZM173.024 221.616C173.795 221.17 174.539 220.619 175.258 219.967L173.914 218.486C173.289 219.053 172.658 219.517 172.023 219.884L173.024 221.616ZM175.258 219.967C175.985 219.308 176.655 218.552 177.27 217.704L175.652 216.53C175.11 217.276 174.531 217.926 173.914 218.486L175.258 219.967ZM175.497 217.385C175.652 217.94 175.814 218.55 175.984 219.217L177.922 218.721C177.749 218.044 177.583 217.42 177.424 216.85L175.497 217.385ZM175.988 219.23C176.141 219.798 176.311 220.462 176.497 221.222L178.44 220.747C178.251 219.975 178.077 219.296 177.918 218.708L175.988 219.23ZM176.504 221.246C176.707 221.996 176.926 222.802 177.16 223.662L179.09 223.135C178.856 222.276 178.637 221.472 178.434 220.723L176.504 221.246ZM177.525 222.598C176.628 223.271 175.757 223.816 174.912 224.238L175.807 226.027C176.774 225.544 177.747 224.932 178.725 224.198L177.525 222.598ZM174.912 224.238C174.049 224.67 173.217 225.008 172.416 225.256L173.006 227.166C173.924 226.883 174.857 226.502 175.807 226.027L174.912 224.238ZM172.411 225.257C171.619 225.506 170.867 225.672 170.154 225.757L170.393 227.743C171.242 227.641 172.116 227.447 173.011 227.165L172.411 225.257ZM170.135 225.76C169.392 225.864 168.712 225.914 168.094 225.914V227.914C168.819 227.914 169.593 227.855 170.412 227.74L170.135 225.76ZM168.094 225.914C166.427 225.914 165.072 225.69 164 225.278L163.282 227.144C164.647 227.669 166.26 227.914 168.094 227.914V225.914ZM163.993 225.275C162.903 224.865 162.019 224.31 161.317 223.622L159.917 225.05C160.841 225.956 161.972 226.651 163.288 227.147L163.993 225.275ZM161.331 223.636C160.625 222.916 160.07 222.077 159.664 221.113L157.82 221.887C158.321 223.079 159.015 224.131 159.903 225.036L161.331 223.636ZM159.671 221.129C159.261 220.104 158.951 218.999 158.743 217.812L156.773 218.157C157.003 219.47 157.349 220.709 157.814 221.871L159.671 221.129ZM158.743 217.814C158.533 216.596 158.404 215.329 158.359 214.012L156.36 214.081C156.408 215.484 156.545 216.842 156.772 218.155L158.743 217.814ZM158.359 214.013C158.312 212.649 158.289 211.301 158.289 209.969H156.289C156.289 211.324 156.313 212.695 156.36 214.081L158.359 214.013ZM158.289 209.969C158.289 209.64 158.297 209.261 158.312 208.833L156.313 208.761C156.297 209.208 156.289 209.61 156.289 209.969H158.289ZM158.312 208.833C158.327 208.406 158.35 207.954 158.381 207.478L156.385 207.35C156.353 207.843 156.329 208.313 156.313 208.761L158.312 208.833ZM157.354 206.414L151.752 206.579L151.811 208.578L157.412 208.414L157.354 206.414ZM152.777 207.673L153.245 202.775L151.255 202.584L150.786 207.483L152.777 207.673ZM152.328 203.677L158 203.231L157.844 201.237L152.172 201.683L152.328 203.677ZM158.915 202.351C159.071 201.029 159.234 199.738 159.405 198.478L157.423 198.209C157.25 199.481 157.086 200.784 156.929 202.118L158.915 202.351ZM159.403 198.49C159.591 197.222 159.756 196.078 159.897 195.059L157.916 194.785C157.776 195.797 157.612 196.934 157.425 198.197L159.403 198.49ZM159.896 195.065C160.068 193.878 160.232 192.754 160.388 191.692L158.409 191.401C158.253 192.465 158.089 193.59 157.917 194.779L159.896 195.065ZM159.325 192.544L166.918 193.107L167.066 191.112L159.472 190.55L159.325 192.544ZM166.016 191.892C165.826 192.749 165.636 193.682 165.447 194.691L167.413 195.059C167.598 194.068 167.784 193.158 167.968 192.326L166.016 191.892ZM165.449 194.679C165.276 195.543 165.08 196.554 164.861 197.713L166.826 198.084C167.045 196.93 167.239 195.926 167.41 195.071L165.449 194.679ZM164.859 197.723C164.655 198.869 164.443 200.117 164.224 201.464L166.198 201.786C166.416 200.446 166.626 199.209 166.828 198.074L164.859 197.723ZM165.291 202.622L175.463 201.801L175.302 199.808L165.131 200.628L165.291 202.622ZM174.383 200.781L174.242 206.828L176.242 206.875L176.383 200.828L174.383 200.781ZM175.212 205.852L164.36 206.18L164.421 208.179L175.272 207.851L175.212 205.852ZM163.399 207.047C163.163 208.812 162.974 210.54 162.832 212.229L164.825 212.396C164.964 210.742 165.149 209.047 165.382 207.312L163.399 207.047ZM162.831 212.237C162.704 213.915 162.641 215.495 162.641 216.977H164.641C164.641 215.552 164.702 214.022 164.825 212.388L162.831 212.237ZM206.508 217.984L207.441 218.343L207.85 217.277L206.74 217.012L206.508 217.984ZM204.023 222.016L203.292 221.334L203.291 221.334L204.023 222.016ZM200.461 224.828L200.945 225.703L200.953 225.699L200.461 224.828ZM179.953 219.812L179.032 220.203L179.038 220.215L179.953 219.812ZM178.898 215.242H177.898V215.271L177.9 215.3L178.898 215.242ZM180.117 208.961L179.213 208.533L179.212 208.537L180.117 208.961ZM183.469 204.695L182.859 203.903L182.855 203.906L183.469 204.695ZM188.438 202.305L188.693 203.271L188.701 203.269L188.438 202.305ZM196.875 201.695L196.744 202.687L196.746 202.687L196.875 201.695ZM201.609 203.453L201.038 204.274L201.048 204.281L201.059 204.288L201.609 203.453ZM203.578 205.352L202.774 205.946L202.781 205.955L202.788 205.964L203.578 205.352ZM205.922 211.938L206.098 212.922L207.015 212.758L206.916 211.832L205.922 211.938ZM186.68 215.383L186.503 214.398L185.578 214.564L185.686 215.498L186.68 215.383ZM187.336 218.547L186.379 218.837L186.383 218.85L187.336 218.547ZM188.648 221.289L187.824 221.855L187.829 221.863L188.648 221.289ZM190.664 223.164L190.157 224.026L190.167 224.032L190.177 224.037L190.664 223.164ZM193.547 223.797L193.575 224.796L193.619 224.795L193.663 224.79L193.547 223.797ZM196.734 222.719L197.266 223.566L197.273 223.561L196.734 222.719ZM197.859 221.805L198.566 222.512L198.574 222.504L198.581 222.497L197.859 221.805ZM199.453 216.297L199.686 215.324L198.336 215.001L198.457 216.384L199.453 216.297ZM197.625 210.438L197.799 211.422L198.699 211.263L198.621 210.353L197.625 210.438ZM196.453 207.109L195.657 207.714L195.664 207.724L195.672 207.734L196.453 207.109ZM195.445 206.148L194.851 206.953L194.87 206.967L194.891 206.98L195.445 206.148ZM194.344 205.516L194.728 204.593L194.724 204.591L194.344 205.516ZM191.391 205.023L191.362 204.024L191.316 204.025L191.27 204.031L191.391 205.023ZM188.883 205.914L189.46 206.73L189.467 206.726L189.473 206.721L188.883 205.914ZM187.383 207.625L186.497 207.162L186.493 207.17L187.383 207.625ZM186.492 212.406H185.492V213.599L186.666 213.391L186.492 212.406ZM205.574 217.626C205.023 219.061 204.261 220.293 203.292 221.334L204.755 222.697C205.91 221.457 206.805 220.002 207.441 218.343L205.574 217.626ZM203.291 221.334C202.314 222.385 201.207 223.258 199.969 223.957L200.953 225.699C202.371 224.898 203.639 223.896 204.756 222.697L203.291 221.334ZM199.977 223.953C198.728 224.644 197.405 225.158 196.007 225.497L196.477 227.441C198.048 227.06 199.538 226.481 200.945 225.703L199.977 223.953ZM196.007 225.497C194.595 225.839 193.213 226.008 191.859 226.008V228.008C193.381 228.008 194.921 227.818 196.477 227.441L196.007 225.497ZM191.859 226.008C189.963 226.008 188.311 225.712 186.887 225.142L186.144 226.999C187.845 227.679 189.756 228.008 191.859 228.008V226.008ZM186.887 225.142C185.433 224.56 184.219 223.784 183.228 222.822L181.834 224.256C183.031 225.419 184.473 226.33 186.144 226.999L186.887 225.142ZM183.228 222.822C182.229 221.851 181.443 220.716 180.869 219.41L179.038 220.215C179.714 221.753 180.646 223.102 181.834 224.256L183.228 222.822ZM180.874 219.422C180.311 218.094 179.984 216.683 179.897 215.184L177.9 215.3C178 217.02 178.377 218.656 179.032 220.203L180.874 219.422ZM179.898 215.242C179.898 212.896 180.287 210.955 181.023 209.385L179.212 208.537C178.322 210.436 177.898 212.682 177.898 215.242H179.898ZM181.021 209.389C181.788 207.768 182.811 206.474 184.083 205.485L182.855 203.906C181.314 205.104 180.102 206.654 179.213 208.533L181.021 209.389ZM184.078 205.488C185.386 204.482 186.919 203.741 188.693 203.271L188.182 201.338C186.174 201.869 184.395 202.721 182.859 203.903L184.078 205.488ZM188.701 203.269C190.499 202.779 192.417 202.531 194.461 202.531V200.531C192.255 200.531 190.158 200.799 188.174 201.34L188.701 203.269ZM194.461 202.531C195.196 202.531 195.956 202.583 196.744 202.687L197.006 200.704C196.137 200.589 195.289 200.531 194.461 200.531V202.531ZM196.746 202.687C197.521 202.787 198.273 202.967 199.003 203.224L199.669 201.338C198.805 201.033 197.916 200.822 197.004 200.704L196.746 202.687ZM199.003 203.224C199.712 203.475 200.39 203.823 201.038 204.274L202.18 202.632C201.391 202.083 200.553 201.65 199.669 201.338L199.003 203.224ZM201.059 204.288C201.686 204.701 202.259 205.25 202.774 205.946L204.382 204.757C203.741 203.891 203.002 203.174 202.16 202.618L201.059 204.288ZM202.788 205.964C203.31 206.638 203.765 207.468 204.142 208.47L206.014 207.765C205.579 206.61 205.034 205.597 204.368 204.739L202.788 205.964ZM204.142 208.47C204.512 209.45 204.778 210.637 204.927 212.043L206.916 211.832C206.753 210.301 206.457 208.941 206.014 207.765L204.142 208.47ZM205.746 210.953L186.503 214.398L186.856 216.367L206.098 212.922L205.746 210.953ZM185.686 215.498C185.818 216.635 186.049 217.748 186.379 218.837L188.293 218.257C187.998 217.283 187.791 216.287 187.673 215.268L185.686 215.498ZM186.383 218.85C186.737 219.964 187.215 220.968 187.824 221.855L189.473 220.723C188.988 220.016 188.591 219.193 188.289 218.244L186.383 218.85ZM187.829 221.863C188.456 222.757 189.233 223.482 190.157 224.026L191.171 222.302C190.502 221.908 189.935 221.383 189.468 220.716L187.829 221.863ZM190.177 224.037C191.175 224.594 192.321 224.832 193.575 224.796L193.519 222.797C192.554 222.824 191.778 222.641 191.151 222.291L190.177 224.037ZM193.663 224.79C194.997 224.634 196.204 224.232 197.266 223.566L196.203 221.872C195.421 222.362 194.503 222.678 193.431 222.804L193.663 224.79ZM197.273 223.561C197.73 223.269 198.161 222.917 198.566 222.512L197.152 221.098C196.839 221.411 196.52 221.669 196.195 221.876L197.273 223.561ZM198.581 222.497C199.015 222.044 199.381 221.518 199.686 220.927L197.908 220.011C197.681 220.451 197.423 220.815 197.137 221.113L198.581 222.497ZM199.686 220.927C200.005 220.307 200.228 219.608 200.367 218.843L198.399 218.485C198.288 219.095 198.12 219.599 197.908 220.011L199.686 220.927ZM200.367 218.843C200.511 218.047 200.533 217.166 200.449 216.209L198.457 216.384C198.529 217.209 198.504 217.906 198.399 218.485L200.367 218.843ZM199.22 217.269L206.275 218.957L206.74 217.012L199.686 215.324L199.22 217.269ZM198.621 210.353C198.553 209.551 198.406 208.818 198.164 208.167L196.289 208.864C196.454 209.307 196.572 209.855 196.629 210.522L198.621 210.353ZM198.164 208.167C197.93 207.537 197.623 206.971 197.234 206.485L195.672 207.734C195.908 208.029 196.117 208.401 196.289 208.864L198.164 208.167ZM197.249 206.504C196.891 206.033 196.475 205.633 196 205.316L194.891 206.98C195.165 207.164 195.421 207.405 195.657 207.714L197.249 206.504ZM196.04 205.344C195.622 205.035 195.185 204.783 194.728 204.593L193.959 206.439C194.253 206.561 194.55 206.73 194.851 206.953L196.04 205.344ZM194.724 204.591C193.7 204.17 192.574 203.989 191.362 204.024L191.419 206.023C192.395 205.995 193.237 206.142 193.964 206.441L194.724 204.591ZM191.27 204.031C190.12 204.17 189.107 204.511 188.292 205.107L189.473 206.721C189.939 206.38 190.599 206.127 191.511 206.016L191.27 204.031ZM188.305 205.098C187.537 205.641 186.93 206.332 186.497 207.162L188.269 208.088C188.554 207.543 188.948 207.093 189.46 206.73L188.305 205.098ZM186.493 207.17C186.095 207.947 185.83 208.803 185.691 209.726L187.668 210.024C187.779 209.291 187.984 208.646 188.273 208.08L186.493 207.17ZM185.691 209.726C185.558 210.605 185.492 211.498 185.492 212.406H187.492C187.492 211.596 187.551 210.802 187.668 210.024L185.691 209.726ZM186.666 213.391L197.799 211.422L197.451 209.453L186.318 211.422L186.666 213.391ZM242.883 220.586L243.882 220.635L243.93 219.647L242.943 219.588L242.883 220.586ZM242.648 225.367L242.732 226.364L243.604 226.29L243.647 225.416L242.648 225.367ZM224.227 226.914H223.227V228.002L224.31 227.911L224.227 226.914ZM224.227 219.461L224.292 218.463L223.227 218.393V219.461H224.227ZM230.273 219.859L230.208 220.857L231.303 220.929L231.273 219.832L230.273 219.859ZM229.734 199.844L230.734 199.817L230.706 198.793L229.683 198.845L229.734 199.844ZM224.227 200.125L223.232 200.024L223.114 201.183L224.278 201.124L224.227 200.125ZM225.047 192.016L225.093 191.017L224.147 190.973L224.052 191.915L225.047 192.016ZM240.82 192.742L241.712 192.29L241.448 191.77L240.866 191.743L240.82 192.742ZM255.281 221.242L254.389 221.695L256.281 221.242H255.281ZM255.281 199.305H256.281V198.276L255.253 198.305L255.281 199.305ZM250.289 199.445H249.289V200.474L250.317 200.445L250.289 199.445ZM250.289 192.016L250.37 191.019L249.289 190.931V192.016H250.289ZM267.938 193.445L268.936 193.506L268.995 192.528L268.018 192.449L267.938 193.445ZM267.609 198.836L267.645 199.835L268.552 199.803L268.608 198.897L267.609 198.836ZM262.289 199.023L262.254 198.024L261.393 198.054L261.295 198.911L262.289 199.023ZM259.125 226.914L259.319 227.895L260.036 227.753L260.119 227.027L259.125 226.914ZM254.508 227.828L253.667 228.369L254.035 228.941L254.702 228.809L254.508 227.828ZM236.555 199.938L237.396 199.396L235.821 196.951L235.559 199.847L236.555 199.938ZM234.727 220.094L233.731 220.003L233.638 221.03L234.666 221.092L234.727 220.094ZM241.884 220.537L241.65 225.318L243.647 225.416L243.882 220.635L241.884 220.537ZM242.565 224.371L224.143 225.918L224.31 227.911L242.732 226.364L242.565 224.371ZM225.227 226.914V219.461H223.227V226.914H225.227ZM224.161 220.459L230.208 220.857L230.339 218.862L224.292 218.463L224.161 220.459ZM231.273 219.832L230.734 199.817L228.735 199.871L229.274 219.886L231.273 219.832ZM229.683 198.845L224.176 199.126L224.278 201.124L229.785 200.842L229.683 198.845ZM225.221 200.226L226.042 192.116L224.052 191.915L223.232 200.024L225.221 200.226ZM225.001 193.015L240.774 193.741L240.866 191.743L225.093 191.017L225.001 193.015ZM239.929 193.195L254.389 221.695L256.173 220.79L241.712 192.29L239.929 193.195ZM256.281 221.242V199.305H254.281V221.242H256.281ZM255.253 198.305L250.261 198.446L250.317 200.445L255.309 200.304L255.253 198.305ZM251.289 199.445V192.016H249.289V199.445H251.289ZM250.208 193.012L267.857 194.442L268.018 192.449L250.37 191.019L250.208 193.012ZM266.939 193.385L266.611 198.775L268.608 198.897L268.936 193.506L266.939 193.385ZM267.574 197.837L262.254 198.024L262.324 200.023L267.645 199.835L267.574 197.837ZM261.295 198.911L258.131 226.801L260.119 227.027L263.283 199.136L261.295 198.911ZM258.931 225.933L254.314 226.847L254.702 228.809L259.319 227.895L258.931 225.933ZM255.349 227.287L237.396 199.396L235.714 200.479L253.667 228.369L255.349 227.287ZM235.559 199.847L233.731 220.003L235.722 220.184L237.551 200.028L235.559 199.847ZM234.666 221.092L242.823 221.584L242.943 219.588L234.787 219.096L234.666 221.092ZM300.328 226.539V227.539H301.328V226.539H300.328ZM287.648 226.539L286.652 226.46L286.566 227.539H287.648V226.539ZM287.953 222.695L288.95 222.774L289.131 220.491L287.333 221.91L287.953 222.695ZM284.461 224.852L284.059 223.936L284.055 223.938L284.461 224.852ZM281.438 225.953L281.183 224.986L281.178 224.987L281.438 225.953ZM278.438 226.422V227.422H278.454L278.47 227.421L278.438 226.422ZM274.734 225.859L274.366 226.789L274.378 226.794L274.734 225.859ZM272.367 224.242L271.595 224.877L271.602 224.887L271.61 224.896L272.367 224.242ZM271.125 221.734L270.156 221.981L270.157 221.984L271.125 221.734ZM270.844 215.383L269.849 215.28L269.847 215.296L269.846 215.312L270.844 215.383ZM270.984 214L269.993 213.868L269.991 213.884L269.989 213.9L270.984 214ZM271.195 212.383L270.207 212.231L270.205 212.243L270.203 212.256L271.195 212.383ZM271.477 210.273L270.486 210.14L270.484 210.148L270.483 210.157L271.477 210.273ZM271.852 207.367L272.844 207.491L272.993 206.296L271.791 206.369L271.852 207.367ZM266.859 207.672L265.868 207.544L265.713 208.744L266.92 208.67L266.859 207.672ZM267.586 202.047L267.628 201.048L266.712 201.009L266.594 201.919L267.586 202.047ZM279.164 202.539L280.158 202.647L280.273 201.585L279.207 201.54L279.164 202.539ZM278.672 207.062L279.666 207.173L279.666 207.172L278.672 207.062ZM278.297 210.367L277.304 210.251L277.303 210.259L277.302 210.268L278.297 210.367ZM278.039 212.758L277.046 212.64L277.045 212.651L277.044 212.663L278.039 212.758ZM277.875 214.516L278.871 214.609L278.871 214.606L277.875 214.516ZM277.781 215.875L278.78 215.915L278.781 215.913L277.781 215.875ZM278.484 220.75L277.614 221.243L277.62 221.254L277.627 221.264L278.484 220.75ZM279.562 221.852L279.044 222.706L279.05 222.71L279.057 222.714L279.562 221.852ZM281.227 222.25V223.25H281.255L281.284 223.248L281.227 222.25ZM283.711 221.57L283.279 220.668L283.277 220.669L283.711 221.57ZM286.008 219.953L285.344 219.205L285.337 219.211L286.008 219.953ZM288.375 216.789L289.253 217.268L289.356 217.078L289.372 216.862L288.375 216.789ZM289.102 206.898L290.099 206.972L290.181 205.86L289.066 205.899L289.102 206.898ZM283.805 207.086L282.809 206.989L282.698 208.126L283.84 208.085L283.805 207.086ZM284.297 202.047L284.333 201.048L283.393 201.013L283.302 201.95L284.297 202.047ZM300.328 202.633H301.328V201.669L300.365 201.633L300.328 202.633ZM300.328 206.406L300.377 207.405L301.328 207.359V206.406H300.328ZM295.008 206.664L294.959 205.665L293.99 205.712L294.008 206.682L295.008 206.664ZM295.289 221.969L294.289 221.987L294.306 222.89L295.206 222.965L295.289 221.969ZM300.328 222.391H301.328V221.471L300.412 221.394L300.328 222.391ZM300.328 225.539H287.648V227.539H300.328V225.539ZM288.645 226.618L288.95 222.774L286.956 222.616L286.652 226.46L288.645 226.618ZM287.333 221.91C286.199 222.806 285.108 223.476 284.059 223.936L284.862 225.767C286.096 225.227 287.332 224.46 288.573 223.48L287.333 221.91ZM284.055 223.938C282.964 224.423 282.008 224.769 281.183 224.986L281.692 226.92C282.648 226.668 283.708 226.28 284.867 225.765L284.055 223.938ZM281.178 224.987C280.195 225.251 279.272 225.394 278.405 225.422L278.47 227.421C279.51 227.387 280.586 227.217 281.697 226.919L281.178 224.987ZM278.438 225.422C277.029 225.422 275.925 225.243 275.09 224.925L274.378 226.794C275.513 227.226 276.877 227.422 278.438 227.422V225.422ZM275.103 224.93C274.244 224.589 273.596 224.135 273.124 223.589L271.61 224.896C272.326 225.724 273.256 226.349 274.366 226.789L275.103 224.93ZM273.14 223.607C272.663 223.027 272.31 222.326 272.093 221.484L270.157 221.984C270.44 223.08 270.915 224.051 271.595 224.877L273.14 223.607ZM272.094 221.488C271.868 220.597 271.75 219.588 271.75 218.453H269.75C269.75 219.724 269.882 220.903 270.156 221.981L272.094 221.488ZM271.75 218.453C271.75 217.82 271.758 217.269 271.773 216.798L269.774 216.733C269.758 217.231 269.75 217.805 269.75 218.453H271.75ZM271.773 216.798C271.788 216.325 271.811 215.877 271.841 215.454L269.846 215.312C269.814 215.763 269.79 216.237 269.774 216.733L271.773 216.798ZM271.838 215.486C271.885 215.031 271.932 214.569 271.979 214.1L269.989 213.9C269.943 214.368 269.896 214.828 269.849 215.28L271.838 215.486ZM271.976 214.132C272.038 213.661 272.109 213.121 272.187 212.51L270.203 212.256C270.125 212.864 270.055 213.401 269.993 213.868L271.976 214.132ZM272.184 212.535C272.28 211.911 272.375 211.196 272.47 210.39L270.483 210.157C270.391 210.945 270.298 211.636 270.207 212.231L272.184 212.535ZM272.468 210.407C272.578 209.59 272.703 208.618 272.844 207.491L270.859 207.243C270.719 208.366 270.594 209.332 270.486 210.14L272.468 210.407ZM271.791 206.369L266.798 206.674L266.92 208.67L271.912 208.365L271.791 206.369ZM267.851 207.8L268.578 202.175L266.594 201.919L265.868 207.544L267.851 207.8ZM267.543 203.046L279.122 203.538L279.207 201.54L267.628 201.048L267.543 203.046ZM278.17 202.432C277.982 204.166 277.818 205.673 277.678 206.953L279.666 207.172C279.807 205.89 279.971 204.381 280.158 202.647L278.17 202.432ZM277.678 206.952C277.538 208.216 277.413 209.316 277.304 210.251L279.29 210.483C279.4 209.543 279.525 208.44 279.666 207.173L277.678 206.952ZM277.302 210.268C277.208 211.201 277.123 211.992 277.046 212.64L279.032 212.876C279.111 212.212 279.198 211.408 279.292 210.467L277.302 210.268ZM277.044 212.663C276.981 213.32 276.926 213.908 276.879 214.425L278.871 214.606C278.918 214.092 278.972 213.508 279.035 212.853L277.044 212.663ZM276.879 214.422C276.831 214.937 276.798 215.408 276.782 215.837L278.781 215.913C278.795 215.529 278.825 215.095 278.871 214.609L276.879 214.422ZM276.782 215.835C276.766 216.24 276.758 216.668 276.758 217.117H278.758C278.758 216.691 278.765 216.291 278.78 215.915L276.782 215.835ZM276.758 217.117C276.758 217.872 276.816 218.594 276.937 219.282L278.907 218.937C278.809 218.375 278.758 217.769 278.758 217.117H276.758ZM276.937 219.282C277.062 220 277.283 220.659 277.614 221.243L279.354 220.257C279.154 219.904 279 219.469 278.907 218.937L276.937 219.282ZM277.627 221.264C277.986 221.863 278.458 222.351 279.044 222.706L280.081 220.997C279.792 220.821 279.545 220.575 279.342 220.236L277.627 221.264ZM279.057 222.714C279.697 223.09 280.436 223.25 281.227 223.25V221.25C280.704 221.25 280.334 221.145 280.068 220.989L279.057 222.714ZM281.284 223.248C282.245 223.193 283.201 222.926 284.145 222.471L283.277 220.669C282.534 221.027 281.833 221.213 281.169 221.252L281.284 223.248ZM284.142 222.472C284.974 222.075 285.819 221.472 286.678 220.695L285.337 219.211C284.572 219.903 283.886 220.378 283.279 220.668L284.142 222.472ZM286.671 220.701C287.614 219.866 288.469 218.706 289.253 217.268L287.497 216.31C286.781 217.622 286.058 218.572 285.344 219.205L286.671 220.701ZM289.372 216.862L290.099 206.972L288.104 206.825L287.378 216.716L289.372 216.862ZM289.066 205.899L283.769 206.087L283.84 208.085L289.137 207.898L289.066 205.899ZM284.8 207.183L285.292 202.144L283.302 201.95L282.809 206.989L284.8 207.183ZM284.26 203.046L300.292 203.632L300.365 201.633L284.333 201.048L284.26 203.046ZM299.328 202.633V206.406H301.328V202.633H299.328ZM300.28 205.407L294.959 205.665L295.056 207.663L300.377 207.405L300.28 205.407ZM294.008 206.682L294.289 221.987L296.289 221.95L296.008 206.646L294.008 206.682ZM295.206 222.965L300.245 223.387L300.412 221.394L295.372 220.972L295.206 222.965ZM299.328 222.391V226.539H301.328V222.391H299.328ZM334.969 220.914L335.962 221.034L336.105 219.848L334.913 219.916L334.969 220.914ZM334.289 226.539L334.248 227.538L335.171 227.576L335.282 226.659L334.289 226.539ZM322.242 226.047L321.247 225.945L321.139 227.003L322.201 227.046L322.242 226.047ZM323.086 217.984L322.093 217.868L322.092 217.876L322.091 217.883L323.086 217.984ZM323.344 215.641L322.351 215.52L322.35 215.53L322.349 215.541L323.344 215.641ZM323.508 213.977L322.512 213.88L322.511 213.895L322.51 213.91L323.508 213.977ZM323.367 209.43L322.397 209.672L322.401 209.687L322.405 209.701L323.367 209.43ZM321.398 206.688L320.896 207.552L320.913 207.562L320.929 207.571L321.398 206.688ZM319.688 206.219L319.735 205.22L319.651 205.216L319.568 205.226L319.688 206.219ZM318.375 206.547L318.702 207.492L318.709 207.489L318.375 206.547ZM316.898 207.18L317.325 208.084L317.336 208.079L316.898 207.18ZM315 208.328L314.42 207.513L314.036 207.786L314.003 208.257L315 208.328ZM314.039 221.734L313.042 221.663L312.961 222.788L314.088 222.733L314.039 221.734ZM319.312 221.477L320.309 221.56L320.404 220.422L319.264 220.478L319.312 221.477ZM318.891 226.539L318.883 227.539L319.81 227.546L319.887 226.622L318.891 226.539ZM302.789 226.422H301.789V227.415L302.782 227.422L302.789 226.422ZM302.789 222.156L302.75 221.157L301.789 221.194V222.156H302.789ZM307.641 221.969L307.679 222.968L308.662 222.93L308.64 221.946L307.641 221.969ZM307.312 207.227L308.312 207.204L308.29 206.199L307.284 206.227L307.312 207.227ZM302.32 207.367H301.32V208.396L302.348 208.367L302.32 207.367ZM302.32 203.102L302.193 202.11L301.32 202.222V203.102H302.32ZM315.469 201.414L316.466 201.491L316.561 200.266L315.341 200.422L315.469 201.414ZM315.234 204.438L314.237 204.36L314.092 206.231L315.726 205.308L315.234 204.438ZM317.977 203.172L317.655 202.225L317.65 202.227L317.977 203.172ZM320.297 202.469L320.082 201.492L320.065 201.496L320.049 201.5L320.297 202.469ZM322.477 202.094V201.094H322.419L322.361 201.1L322.477 202.094ZM329.484 205.023L328.676 205.612L329.243 206.39L330.042 205.854L329.484 205.023ZM335.156 202.516L335.394 203.487L335.395 203.487L335.156 202.516ZM337.688 202.094V201.094H337.648L337.609 201.097L337.688 202.094ZM344.32 204.508L343.569 205.167L343.576 205.176L343.583 205.184L344.32 204.508ZM345.82 207.25L344.86 207.528L344.861 207.532L345.82 207.25ZM346.266 212.219L347.265 212.257L347.265 212.256L346.266 212.219ZM346.172 213.438L345.178 213.323L345.176 213.34L345.175 213.358L346.172 213.438ZM346.031 214.68L345.041 214.538L345.039 214.556L345.037 214.573L346.031 214.68ZM345.188 221.195L344.195 221.071L344.047 222.261L345.243 222.194L345.188 221.195ZM350.227 220.914L351.218 221.042L351.372 219.849L350.171 219.916L350.227 220.914ZM349.5 226.539L349.459 227.538L350.374 227.576L350.492 226.667L349.5 226.539ZM337.453 226.047L336.458 225.945L336.35 227.003L337.412 227.046L337.453 226.047ZM338.297 217.984L337.304 217.868L337.303 217.876L337.302 217.883L338.297 217.984ZM338.555 215.641L337.562 215.52L337.561 215.53L337.56 215.541L338.555 215.641ZM338.719 213.977L337.723 213.88L337.722 213.895L337.721 213.91L338.719 213.977ZM338.578 209.43L337.608 209.672L337.612 209.687L337.616 209.701L338.578 209.43ZM337.852 207.789L337.02 208.344L337.026 208.353L337.032 208.363L337.852 207.789ZM336.633 206.688L336.131 207.552L336.147 207.562L336.164 207.571L336.633 206.688ZM334.922 206.219L334.969 205.22L334.875 205.215L334.78 205.229L334.922 206.219ZM333.797 206.523L334.125 207.468L334.135 207.465L334.144 207.461L333.797 206.523ZM332.484 207.086L332.048 206.186L332.037 206.192L332.484 207.086ZM330.773 208.094L330.223 207.259L329.661 207.629L329.793 208.29L330.773 208.094ZM330.914 213.438L329.921 213.323L329.919 213.34L329.917 213.358L330.914 213.438ZM330.773 214.68L329.783 214.538L329.781 214.554L329.78 214.569L330.773 214.68ZM330.305 218.312L329.314 218.179L329.312 218.187L329.312 218.196L330.305 218.312ZM329.977 221.195L328.983 221.085L328.852 222.26L330.033 222.194L329.977 221.195ZM333.976 220.794L333.296 226.419L335.282 226.659L335.962 221.034L333.976 220.794ZM334.33 225.54L322.283 225.048L322.201 227.046L334.248 227.538L334.33 225.54ZM323.237 226.149C323.424 224.322 323.588 222.753 323.729 221.442L321.74 221.229C321.599 222.544 321.435 224.116 321.247 225.945L323.237 226.149ZM323.729 221.442C323.869 220.129 323.987 219.01 324.081 218.086L322.091 217.883C321.998 218.803 321.881 219.918 321.74 221.229L323.729 221.442ZM324.079 218.1C324.189 217.16 324.276 216.373 324.339 215.74L322.349 215.541C322.287 216.159 322.202 216.934 322.093 217.868L324.079 218.1ZM324.336 215.762C324.416 215.109 324.473 214.535 324.506 214.043L322.51 213.91C322.48 214.355 322.428 214.891 322.351 215.52L324.336 215.762ZM324.503 214.073C324.551 213.574 324.584 213.117 324.601 212.704L322.602 212.624C322.588 212.992 322.558 213.41 322.512 213.88L324.503 214.073ZM324.601 212.704C324.617 212.298 324.625 211.863 324.625 211.398H322.625C322.625 211.84 322.617 212.249 322.602 212.624L324.601 212.704ZM324.625 211.398C324.625 210.614 324.529 209.865 324.33 209.158L322.405 209.701C322.549 210.213 322.625 210.777 322.625 211.398H324.625ZM324.337 209.187C324.155 208.458 323.866 207.796 323.46 207.216L321.821 208.363C322.071 208.719 322.267 209.151 322.397 209.672L324.337 209.187ZM323.46 207.216C323.042 206.619 322.509 206.145 321.868 205.804L320.929 207.571C321.288 207.761 321.583 208.022 321.821 208.363L323.46 207.216ZM321.901 205.823C321.255 205.448 320.524 205.257 319.735 205.22L319.64 207.218C320.164 207.243 320.573 207.364 320.896 207.552L321.901 205.823ZM319.568 205.226C319.086 205.284 318.575 205.415 318.041 205.604L318.709 207.489C319.144 207.335 319.508 207.247 319.807 207.212L319.568 205.226ZM318.048 205.602C317.59 205.76 317.059 205.989 316.461 206.28L317.336 208.079C317.894 207.807 318.347 207.615 318.702 207.492L318.048 205.602ZM316.471 206.275C315.84 206.574 315.155 206.991 314.42 207.513L315.58 209.143C316.251 208.665 316.832 208.317 317.325 208.084L316.471 206.275ZM314.003 208.257L313.042 221.663L315.036 221.806L315.997 208.4L314.003 208.257ZM314.088 222.733L319.361 222.475L319.264 220.478L313.99 220.736L314.088 222.733ZM318.316 221.394L317.894 226.456L319.887 226.622L320.309 221.56L318.316 221.394ZM318.898 225.539L302.796 225.422L302.782 227.422L318.883 227.539L318.898 225.539ZM303.789 226.422V222.156H301.789V226.422H303.789ZM302.828 223.156L307.679 222.968L307.602 220.969L302.75 221.157L302.828 223.156ZM308.64 221.946L308.312 207.204L306.313 207.249L306.641 221.991L308.64 221.946ZM307.284 206.227L302.292 206.368L302.348 208.367L307.341 208.226L307.284 206.227ZM303.32 207.367V203.102H301.32V207.367H303.32ZM302.448 204.093L315.596 202.406L315.341 200.422L302.193 202.11L302.448 204.093ZM314.472 201.337L314.237 204.36L316.231 204.515L316.466 201.491L314.472 201.337ZM315.726 205.308C316.653 204.785 317.512 204.39 318.303 204.117L317.65 202.227C316.723 202.547 315.753 202.996 314.743 203.567L315.726 205.308ZM318.298 204.119C319.156 203.828 319.904 203.601 320.545 203.438L320.049 201.5C319.346 201.68 318.547 201.922 317.655 202.225L318.298 204.119ZM320.512 203.445C321.266 203.279 321.959 203.161 322.592 203.087L322.361 201.1C321.65 201.183 320.89 201.314 320.082 201.492L320.512 203.445ZM322.477 203.094C324.103 203.094 325.381 203.339 326.354 203.778L327.178 201.956C325.869 201.364 324.288 201.094 322.477 201.094V203.094ZM326.354 203.778C327.352 204.23 328.116 204.844 328.676 205.612L330.293 204.434C329.509 203.359 328.46 202.536 327.178 201.956L326.354 203.778ZM330.042 205.854C331.04 205.183 331.993 204.672 332.9 204.312L332.162 202.453C331.101 202.875 330.022 203.458 328.927 204.193L330.042 205.854ZM332.9 204.312C333.855 203.933 334.685 203.661 335.394 203.487L334.918 201.544C334.096 201.746 333.176 202.051 332.162 202.453L332.9 204.312ZM335.395 203.487C336.24 203.279 337.03 203.148 337.766 203.091L337.609 201.097C336.751 201.164 335.853 201.315 334.918 201.544L335.395 203.487ZM337.688 203.094C339.166 203.094 340.364 203.294 341.312 203.66L342.032 201.794C340.792 201.315 339.334 201.094 337.688 201.094V203.094ZM341.312 203.66C342.278 204.032 343.018 204.54 343.569 205.167L345.072 203.848C344.278 202.944 343.253 202.265 342.032 201.794L341.312 203.66ZM343.583 205.184C344.156 205.809 344.586 206.583 344.86 207.528L346.781 206.972C346.43 205.761 345.859 204.707 345.057 203.832L343.583 205.184ZM344.861 207.532C345.142 208.489 345.289 209.572 345.289 210.789H347.289C347.289 209.413 347.123 208.136 346.78 206.968L344.861 207.532ZM345.289 210.789C345.289 211.311 345.281 211.775 345.266 212.182L347.265 212.256C347.281 211.819 347.289 211.33 347.289 210.789H345.289ZM345.266 212.18C345.252 212.561 345.222 212.942 345.178 213.323L347.165 213.552C347.215 213.121 347.248 212.689 347.265 212.257L345.266 212.18ZM345.175 213.358C345.146 213.725 345.101 214.119 345.041 214.538L347.021 214.821C347.086 214.366 347.136 213.931 347.169 213.517L345.175 213.358ZM345.037 214.573C344.991 215 344.93 215.508 344.852 216.096L346.835 216.357C346.914 215.758 346.978 215.234 347.026 214.786L345.037 214.573ZM344.852 216.096C344.774 216.688 344.681 217.381 344.572 218.177L346.553 218.448C346.663 217.65 346.757 216.953 346.835 216.357L344.852 216.096ZM344.572 218.177C344.462 218.979 344.336 219.944 344.195 221.071L346.18 221.319C346.32 220.197 346.445 219.24 346.553 218.448L344.572 218.177ZM345.243 222.194L350.282 221.913L350.171 219.916L345.132 220.197L345.243 222.194ZM349.235 220.786L348.508 226.411L350.492 226.667L351.218 221.042L349.235 220.786ZM349.541 225.54L337.494 225.048L337.412 227.046L349.459 227.538L349.541 225.54ZM338.448 226.149C338.635 224.322 338.799 222.753 338.94 221.442L336.951 221.229C336.81 222.544 336.646 224.116 336.458 225.945L338.448 226.149ZM338.94 221.442C339.08 220.129 339.198 219.01 339.292 218.086L337.302 217.883C337.208 218.803 337.092 219.918 336.951 221.229L338.94 221.442ZM339.29 218.1C339.4 217.16 339.486 216.373 339.55 215.74L337.56 215.541C337.498 216.159 337.413 216.934 337.304 217.868L339.29 218.1ZM339.547 215.762C339.627 215.109 339.684 214.535 339.717 214.043L337.721 213.91C337.691 214.355 337.639 214.891 337.562 215.52L339.547 215.762ZM339.714 214.073C339.762 213.574 339.795 213.117 339.812 212.704L337.813 212.624C337.799 212.992 337.769 213.41 337.723 213.88L339.714 214.073ZM339.812 212.704C339.828 212.298 339.836 211.863 339.836 211.398H337.836C337.836 211.84 337.828 212.249 337.813 212.624L339.812 212.704ZM339.836 211.398C339.836 210.614 339.74 209.865 339.541 209.158L337.616 209.701C337.76 210.213 337.836 210.777 337.836 211.398H339.836ZM339.548 209.187C339.366 208.458 339.077 207.796 338.671 207.216L337.032 208.363C337.282 208.719 337.478 209.151 337.608 209.672L339.548 209.187ZM338.684 207.234C338.279 206.627 337.747 206.147 337.102 205.804L336.164 207.571C336.518 207.759 336.799 208.014 337.02 208.344L338.684 207.234ZM337.135 205.823C336.49 205.448 335.758 205.257 334.969 205.22L334.874 207.218C335.398 207.243 335.807 207.364 336.131 207.552L337.135 205.823ZM334.78 205.229C334.362 205.289 333.916 205.413 333.45 205.586L334.144 207.461C334.521 207.321 334.825 207.243 335.063 207.209L334.78 205.229ZM333.468 205.579C333.059 205.721 332.583 205.927 332.048 206.186L332.921 207.986C333.417 207.745 333.816 207.575 334.125 207.468L333.468 205.579ZM332.037 206.192C331.491 206.464 330.886 206.822 330.223 207.259L331.323 208.929C331.942 208.521 332.477 208.208 332.932 207.98L332.037 206.192ZM329.793 208.29C329.951 209.083 330.031 209.9 330.031 210.742H332.031C332.031 209.772 331.939 208.824 331.754 207.898L329.793 208.29ZM330.031 210.742C330.031 211.28 330.024 211.752 330.008 212.158L332.007 212.232C332.023 211.795 332.031 211.298 332.031 210.742H330.031ZM330.008 212.158C329.994 212.555 329.964 212.943 329.921 213.323L331.907 213.552C331.957 213.119 331.991 212.679 332.007 212.232L330.008 212.158ZM329.917 213.358C329.888 213.725 329.843 214.119 329.783 214.538L331.763 214.821C331.828 214.366 331.878 213.931 331.911 213.517L329.917 213.358ZM329.78 214.569C329.734 214.982 329.672 215.483 329.594 216.073L331.577 216.334C331.656 215.736 331.719 215.221 331.767 214.79L329.78 214.569ZM329.594 216.073C329.517 216.665 329.423 217.367 329.314 218.179L331.296 218.446C331.405 217.633 331.499 216.929 331.577 216.334L329.594 216.073ZM329.312 218.196C329.217 218.995 329.108 219.959 328.983 221.085L330.97 221.306C331.095 220.182 331.204 219.223 331.298 218.429L329.312 218.196ZM330.033 222.194L335.025 221.912L334.913 219.916L329.92 220.197L330.033 222.194ZM377.508 221.43L378.312 222.024L378.317 222.018L377.508 221.43ZM374.906 224.055L375.496 224.862L375.504 224.856L374.906 224.055ZM371.789 225.836L372.177 226.758L372.183 226.755L371.789 225.836ZM368.484 226.82L368.307 225.836L368.294 225.839L368.484 226.82ZM360.75 226.352L361.09 225.411L361.084 225.409L360.75 226.352ZM356.836 223.961L356.149 224.688L356.154 224.692L356.836 223.961ZM354.047 219.883L353.128 220.277L353.131 220.284L354.047 219.883ZM352.922 214.047H351.922V214.057L351.922 214.068L352.922 214.047ZM352.969 211.141L351.97 211.095L351.969 211.103L351.969 211.11L352.969 211.141ZM353.344 204.836L354.341 204.91L354.341 204.909L353.344 204.836ZM353.602 201.789L354.597 201.885L354.598 201.872L353.602 201.789ZM354.281 194.992L355.275 195.108L355.411 193.938L354.234 193.993L354.281 194.992ZM349.289 195.227L348.291 195.158L348.214 196.278L349.336 196.225L349.289 195.227ZM349.617 190.469L349.711 189.473L348.69 189.377L348.62 190.4L349.617 190.469ZM363.047 191.734L364.027 191.933L364.248 190.843L363.141 190.739L363.047 191.734ZM362.391 195.016L363.371 195.212L363.372 195.209L362.391 195.016ZM361.711 198.555L360.728 198.372L360.726 198.381L361.711 198.555ZM361.031 202.82L360.042 202.677L359.747 204.721L361.533 203.685L361.031 202.82ZM364.359 201.367L364.074 200.409L364.071 200.41L364.359 201.367ZM372.633 201.602L372.311 202.548L372.32 202.551L372.633 201.602ZM376.453 203.875L375.762 204.598L375.767 204.603L375.773 204.608L376.453 203.875ZM379.008 207.766L378.075 208.126L378.079 208.137L379.008 207.766ZM360.258 219.062L359.306 219.37L359.308 219.374L360.258 219.062ZM361.5 221.57L360.687 222.153L360.692 222.159L360.696 222.165L361.5 221.57ZM363.328 223.281L362.805 224.134L362.816 224.14L362.828 224.147L363.328 223.281ZM371.461 213.367L372.461 213.38L372.461 213.376L371.461 213.367ZM370.969 208.961L370.011 209.249L370.012 209.253L370.969 208.961ZM369.633 206.289L368.856 206.918L368.864 206.928L368.872 206.938L369.633 206.289ZM366.094 204.555L366.151 203.556L366.142 203.556L366.132 203.555L366.094 204.555ZM363.258 205.305L363.694 206.205L363.705 206.199L363.716 206.194L363.258 205.305ZM361.734 206.289L362.362 207.067L362.365 207.065L361.734 206.289ZM360.375 207.672L359.592 207.05L359.415 207.272L359.382 207.554L360.375 207.672ZM378.945 213.367C378.945 214.97 378.737 216.369 378.339 217.578L380.239 218.203C380.716 216.756 380.945 215.14 380.945 213.367H378.945ZM378.339 217.578C377.931 218.817 377.382 219.902 376.699 220.842L378.317 222.018C379.133 220.895 379.772 219.621 380.239 218.203L378.339 217.578ZM376.703 220.836C376.01 221.775 375.212 222.579 374.308 223.253L375.504 224.856C376.569 224.062 377.506 223.116 378.312 222.024L376.703 220.836ZM374.317 223.247C373.392 223.922 372.418 224.478 371.395 224.917L372.183 226.755C373.348 226.256 374.452 225.624 375.496 224.862L374.317 223.247ZM371.402 224.914C370.389 225.339 369.358 225.646 368.307 225.836L368.662 227.804C369.861 227.588 371.033 227.239 372.177 226.758L371.402 224.914ZM368.294 225.839C367.224 226.047 366.217 226.148 365.273 226.148V228.148C366.361 228.148 367.495 228.031 368.675 227.802L368.294 225.839ZM365.273 226.148C363.844 226.148 362.451 225.903 361.09 225.411L360.41 227.292C361.987 227.862 363.609 228.148 365.273 228.148V226.148ZM361.084 225.409C359.764 224.94 358.577 224.217 357.518 223.23L356.154 224.692C357.408 225.861 358.83 226.731 360.416 227.294L361.084 225.409ZM357.523 223.234C356.492 222.26 355.635 221.017 354.963 219.482L353.131 220.284C353.896 222.03 354.898 223.505 356.149 224.688L357.523 223.234ZM354.966 219.489C354.325 217.993 353.967 216.18 353.922 214.026L351.922 214.068C351.971 216.414 352.363 218.492 353.128 220.277L354.966 219.489ZM353.922 214.047C353.922 213.152 353.937 212.193 353.968 211.171L351.969 211.11C351.938 212.15 351.922 213.129 351.922 214.047H353.922ZM353.968 211.186C354.014 210.159 354.069 209.117 354.131 208.059L352.135 207.941C352.072 209.008 352.017 210.059 351.97 211.095L353.968 211.186ZM354.131 208.059C354.193 207.001 354.263 205.952 354.341 204.91L352.347 204.762C352.268 205.814 352.197 206.874 352.135 207.941L354.131 208.059ZM354.341 204.909C354.419 203.854 354.504 202.846 354.597 201.885L352.606 201.693C352.512 202.67 352.425 203.693 352.346 204.763L354.341 204.909ZM354.598 201.872C354.785 199.633 355.01 197.378 355.275 195.108L353.288 194.877C353.021 197.168 352.793 199.445 352.605 201.706L354.598 201.872ZM354.234 193.993L349.242 194.228L349.336 196.225L354.328 195.991L354.234 193.993ZM350.287 195.295L350.615 190.538L348.62 190.4L348.291 195.158L350.287 195.295ZM349.523 191.464L362.953 192.73L363.141 190.739L349.711 189.473L349.523 191.464ZM362.067 191.535C361.863 192.537 361.644 193.633 361.41 194.822L363.372 195.209C363.606 194.023 363.824 192.931 364.027 191.933L362.067 191.535ZM361.41 194.82C361.206 195.841 360.978 197.025 360.728 198.372L362.694 198.738C362.943 197.397 363.169 196.222 363.371 195.212L361.41 194.82ZM360.726 198.381C360.49 199.721 360.262 201.153 360.042 202.677L362.021 202.963C362.238 201.457 362.463 200.045 362.696 198.728L360.726 198.381ZM361.533 203.685C362.547 203.098 363.585 202.645 364.648 202.325L364.071 200.41C362.853 200.777 361.672 201.293 360.53 201.955L361.533 203.685ZM364.644 202.326C365.708 202.009 366.792 201.852 367.898 201.852V199.852C366.599 199.852 365.323 200.037 364.074 200.409L364.644 202.326ZM367.898 201.852C369.486 201.852 370.954 202.087 372.311 202.548L372.955 200.655C371.374 200.117 369.686 199.852 367.898 199.852V201.852ZM372.32 202.551C373.652 202.991 374.795 203.673 375.762 204.598L377.144 203.152C375.955 202.014 374.551 201.181 372.946 200.652L372.32 202.551ZM375.773 204.608C376.741 205.507 377.513 206.67 378.075 208.126L379.941 207.405C379.284 205.705 378.353 204.274 377.134 203.142L375.773 204.608ZM378.079 208.137C378.646 209.553 378.945 211.287 378.945 213.367H380.945C380.945 211.103 380.62 209.104 379.936 207.394L378.079 208.137ZM358.789 215.969C358.789 217.159 358.959 218.294 359.306 219.37L361.21 218.755C360.931 217.893 360.789 216.966 360.789 215.969H358.789ZM359.308 219.374C359.648 220.411 360.105 221.341 360.687 222.153L362.313 220.987C361.864 220.362 361.493 219.62 361.208 218.751L359.308 219.374ZM360.696 222.165C361.295 222.976 361.997 223.638 362.805 224.134L363.851 222.429C363.284 222.081 362.767 221.603 362.304 220.976L360.696 222.165ZM362.828 224.147C363.67 224.634 364.568 224.891 365.508 224.891V222.891C364.948 222.891 364.392 222.741 363.828 222.415L362.828 224.147ZM365.508 224.891C367.796 224.891 369.579 223.841 370.753 221.842L369.028 220.83C368.202 222.237 367.063 222.891 365.508 222.891V224.891ZM370.753 221.842C371.887 219.911 372.413 217.041 372.461 213.38L370.461 213.354C370.415 216.912 369.894 219.355 369.028 220.83L370.753 221.842ZM372.461 213.376C372.477 211.51 372.31 209.929 371.925 208.669L370.012 209.253C370.315 210.243 370.476 211.599 370.461 213.359L372.461 213.376ZM371.926 208.672C371.558 207.45 371.059 206.42 370.393 205.64L368.872 206.938C369.3 207.44 369.692 208.19 370.011 209.249L371.926 208.672ZM370.41 205.66C369.792 204.896 369.065 204.324 368.219 204.014L367.531 205.892C367.966 206.051 368.411 206.369 368.856 206.918L370.41 205.66ZM368.219 204.014C367.507 203.754 366.816 203.594 366.151 203.556L366.037 205.553C366.465 205.578 366.961 205.684 367.531 205.892L368.219 204.014ZM366.132 203.555C365.609 203.535 365.066 203.607 364.508 203.75L365.008 205.687C365.419 205.581 365.766 205.543 366.055 205.554L366.132 203.555ZM364.508 203.75C363.941 203.897 363.371 204.121 362.8 204.416L363.716 206.194C364.175 205.957 364.606 205.791 365.008 205.687L364.508 203.75ZM362.822 204.405C362.229 204.692 361.656 205.064 361.104 205.513L362.365 207.065C362.812 206.702 363.256 206.417 363.694 206.205L362.822 204.405ZM361.107 205.511C360.56 205.952 360.056 206.466 359.592 207.05L361.158 208.294C361.538 207.815 361.94 207.408 362.362 207.067L361.107 205.511ZM359.382 207.554C359.209 209.02 359.067 210.463 358.956 211.883L360.95 212.038C361.058 210.646 361.198 209.23 361.368 207.789L359.382 207.554ZM358.956 211.883C358.845 213.313 358.789 214.675 358.789 215.969H360.789C360.789 214.732 360.843 213.422 360.95 212.038L358.956 211.883ZM409.945 217.984L410.879 218.343L411.288 217.277L410.178 217.012L409.945 217.984ZM407.461 222.016L406.729 221.334L406.729 221.334L407.461 222.016ZM403.898 224.828L404.382 225.703L404.39 225.699L403.898 224.828ZM383.391 219.812L382.47 220.203L382.475 220.215L383.391 219.812ZM382.336 215.242H381.336V215.271L381.338 215.3L382.336 215.242ZM383.555 208.961L382.651 208.533L382.649 208.537L383.555 208.961ZM386.906 204.695L386.297 203.903L386.292 203.906L386.906 204.695ZM391.875 202.305L392.131 203.271L392.138 203.269L391.875 202.305ZM400.312 201.695L400.182 202.687L400.184 202.687L400.312 201.695ZM405.047 203.453L404.476 204.274L404.486 204.281L404.496 204.288L405.047 203.453ZM407.016 205.352L406.212 205.946L406.219 205.955L406.225 205.964L407.016 205.352ZM409.359 211.938L409.536 212.922L410.452 212.758L410.354 211.832L409.359 211.938ZM390.117 215.383L389.941 214.398L389.016 214.564L389.124 215.498L390.117 215.383ZM390.773 218.547L389.816 218.837L389.821 218.85L390.773 218.547ZM392.086 221.289L391.261 221.855L391.267 221.863L392.086 221.289ZM394.102 223.164L393.595 224.026L393.604 224.032L393.615 224.037L394.102 223.164ZM396.984 223.797L397.013 224.796L397.057 224.795L397.1 224.79L396.984 223.797ZM400.172 222.719L400.703 223.566L400.711 223.561L400.172 222.719ZM401.297 221.805L402.004 222.512L402.012 222.504L402.019 222.497L401.297 221.805ZM402.891 216.297L403.123 215.324L401.773 215.001L401.894 216.384L402.891 216.297ZM401.062 210.438L401.237 211.422L402.136 211.263L402.059 210.353L401.062 210.438ZM399.891 207.109L399.094 207.714L399.102 207.724L399.11 207.734L399.891 207.109ZM398.883 206.148L398.288 206.953L398.308 206.967L398.328 206.98L398.883 206.148ZM397.781 205.516L398.166 204.593L398.161 204.591L397.781 205.516ZM394.828 205.023L394.8 204.024L394.754 204.025L394.708 204.031L394.828 205.023ZM392.32 205.914L392.898 206.73L392.904 206.726L392.911 206.721L392.32 205.914ZM390.82 207.625L389.934 207.162L389.93 207.17L390.82 207.625ZM389.93 212.406H388.93V213.599L390.104 213.391L389.93 212.406ZM409.012 217.626C408.461 219.061 407.699 220.293 406.729 221.334L408.193 222.697C409.348 221.457 410.242 220.002 410.879 218.343L409.012 217.626ZM406.729 221.334C405.751 222.385 404.645 223.258 403.407 223.957L404.39 225.699C405.808 224.898 407.077 223.896 408.193 222.697L406.729 221.334ZM403.415 223.953C402.165 224.644 400.842 225.158 399.444 225.497L399.915 227.441C401.486 227.06 402.976 226.481 404.382 225.703L403.415 223.953ZM399.444 225.497C398.032 225.839 396.65 226.008 395.297 226.008V228.008C396.818 228.008 398.358 227.818 399.915 227.441L399.444 225.497ZM395.297 226.008C393.401 226.008 391.749 225.712 390.325 225.142L389.582 226.999C391.282 227.679 393.193 228.008 395.297 228.008V226.008ZM390.325 225.142C388.871 224.56 387.656 223.784 386.666 222.822L385.272 224.256C386.469 225.419 387.911 226.33 389.582 226.999L390.325 225.142ZM386.666 222.822C385.666 221.851 384.88 220.716 384.306 219.41L382.475 220.215C383.151 221.753 384.084 223.102 385.272 224.256L386.666 222.822ZM384.311 219.422C383.748 218.094 383.422 216.683 383.334 215.184L381.338 215.3C381.438 217.02 381.814 218.656 382.47 220.203L384.311 219.422ZM383.336 215.242C383.336 212.896 383.725 210.955 384.46 209.385L382.649 208.537C381.76 210.436 381.336 212.682 381.336 215.242H383.336ZM384.459 209.389C385.226 207.768 386.248 206.474 387.52 205.485L386.292 203.906C384.752 205.104 383.54 206.654 382.651 208.533L384.459 209.389ZM387.516 205.488C388.823 204.482 390.357 203.741 392.131 203.271L391.619 201.338C389.612 201.869 387.833 202.721 386.297 203.903L387.516 205.488ZM392.138 203.269C393.936 202.779 395.855 202.531 397.898 202.531V200.531C395.692 200.531 393.595 200.799 391.612 201.34L392.138 203.269ZM397.898 202.531C398.633 202.531 399.394 202.583 400.182 202.687L400.443 200.704C399.575 200.589 398.726 200.531 397.898 200.531V202.531ZM400.184 202.687C400.959 202.787 401.71 202.967 402.441 203.224L403.106 201.338C402.243 201.033 401.354 200.822 400.441 200.704L400.184 202.687ZM402.441 203.224C403.15 203.475 403.828 203.823 404.476 204.274L405.618 202.632C404.828 202.083 403.991 201.65 403.106 201.338L402.441 203.224ZM404.496 204.288C405.123 204.701 405.696 205.25 406.212 205.946L407.819 204.757C407.179 203.891 406.439 203.174 405.597 202.618L404.496 204.288ZM406.225 205.964C406.748 206.638 407.202 207.468 407.58 208.47L409.451 207.765C409.016 206.61 408.471 205.597 407.806 204.739L406.225 205.964ZM407.58 208.47C407.949 209.45 408.215 210.637 408.365 212.043L410.354 211.832C410.191 210.301 409.895 208.941 409.451 207.765L407.58 208.47ZM409.183 210.953L389.941 214.398L390.293 216.367L409.536 212.922L409.183 210.953ZM389.124 215.498C389.256 216.635 389.486 217.748 389.816 218.837L391.73 218.257C391.435 217.283 391.229 216.287 391.111 215.268L389.124 215.498ZM389.821 218.85C390.175 219.964 390.653 220.968 391.261 221.855L392.91 220.723C392.425 220.016 392.028 219.193 391.726 218.244L389.821 218.85ZM391.267 221.863C391.893 222.757 392.67 223.482 393.595 224.026L394.609 222.302C393.939 221.908 393.372 221.383 392.905 220.716L391.267 221.863ZM393.615 224.037C394.612 224.594 395.758 224.832 397.013 224.796L396.956 222.797C395.992 222.824 395.216 222.641 394.589 222.291L393.615 224.037ZM397.1 224.79C398.434 224.634 399.642 224.232 400.703 223.566L399.641 221.872C398.858 222.362 397.941 222.678 396.868 222.804L397.1 224.79ZM400.711 223.561C401.168 223.269 401.598 222.917 402.004 222.512L400.59 221.098C400.277 221.411 399.957 221.669 399.633 221.876L400.711 223.561ZM402.019 222.497C402.452 222.044 402.819 221.518 403.123 220.927L401.345 220.011C401.119 220.451 400.86 220.815 400.575 221.113L402.019 222.497ZM403.123 220.927C403.442 220.307 403.665 219.608 403.804 218.843L401.836 218.485C401.726 219.095 401.558 219.599 401.345 220.011L403.123 220.927ZM403.804 218.843C403.949 218.047 403.971 217.166 403.887 216.209L401.894 216.384C401.967 217.209 401.942 217.906 401.836 218.485L403.804 218.843ZM402.658 217.269L409.713 218.957L410.178 217.012L403.123 215.324L402.658 217.269ZM402.059 210.353C401.991 209.551 401.843 208.818 401.602 208.167L399.727 208.864C399.891 209.307 400.009 209.855 400.066 210.522L402.059 210.353ZM401.602 208.167C401.367 207.537 401.061 206.971 400.672 206.485L399.11 207.734C399.346 208.029 399.555 208.401 399.727 208.864L401.602 208.167ZM400.687 206.504C400.329 206.033 399.913 205.633 399.438 205.316L398.328 206.98C398.603 207.164 398.859 207.405 399.094 207.714L400.687 206.504ZM399.477 205.344C399.059 205.035 398.622 204.783 398.166 204.593L397.397 206.439C397.69 206.561 397.988 206.73 398.288 206.953L399.477 205.344ZM398.161 204.591C397.138 204.17 396.011 203.989 394.8 204.024L394.857 206.023C395.832 205.995 396.674 206.142 397.401 206.441L398.161 204.591ZM394.708 204.031C393.557 204.17 392.545 204.511 391.73 205.107L392.911 206.721C393.377 206.38 394.036 206.127 394.948 206.016L394.708 204.031ZM391.743 205.098C390.974 205.641 390.368 206.332 389.934 207.162L391.707 208.088C391.992 207.543 392.385 207.093 392.898 206.73L391.743 205.098ZM389.93 207.17C389.532 207.947 389.268 208.803 389.128 209.726L391.106 210.024C391.217 209.291 391.421 208.646 391.711 208.08L389.93 207.17ZM389.128 209.726C388.996 210.605 388.93 211.498 388.93 212.406H390.93C390.93 211.596 390.989 210.802 391.106 210.024L389.128 209.726ZM390.104 213.391L401.237 211.422L400.888 209.453L389.756 211.422L390.104 213.391ZM431.18 220.633H432.18V219.62L431.167 219.633L431.18 220.633ZM431.18 224.57L431.306 225.562L432.18 225.451V224.57H431.18ZM413.133 226.867L412.139 226.98L412.253 227.987L413.259 227.859L413.133 226.867ZM412.453 220.867L412.445 219.867L411.334 219.876L411.459 220.98L412.453 220.867ZM418.453 220.82L418.461 221.82L419.432 221.813L419.453 220.842L418.453 220.82ZM418.734 207.812L419.734 207.834L419.755 206.885L418.808 206.815L418.734 207.812ZM411.445 207.273H410.445V208.202L411.372 208.271L411.445 207.273ZM411.445 203.289L411.358 202.293L410.445 202.373V203.289H411.445ZM426.609 201.953L427.599 202.1L427.784 200.846L426.522 200.957L426.609 201.953ZM425.836 207.18L424.847 207.033L424.387 210.141L426.559 207.871L425.836 207.18ZM427.195 205.938L427.836 206.706L427.842 206.701L427.848 206.695L427.195 205.938ZM429.047 204.484L429.632 205.296L429.635 205.293L429.047 204.484ZM431.227 202.984L430.688 202.142L430.68 202.147L431.227 202.984ZM433.57 201.625L434.032 202.512L434.039 202.509L434.045 202.505L433.57 201.625ZM435.867 200.547L436.235 201.477L436.245 201.473L435.867 200.547ZM437.977 199.891L438.973 199.81L438.883 198.695L437.785 198.909L437.977 199.891ZM438.609 207.672V208.672H439.694L439.606 207.591L438.609 207.672ZM432.797 208.258L432.563 207.286L432.561 207.286L432.797 208.258ZM428.766 209.547L428.367 208.63L428.365 208.631L428.766 209.547ZM425.602 211.398L424.977 210.618L424.682 210.853L424.617 211.225L425.602 211.398ZM423.961 220.727L422.976 220.553L422.767 221.742L423.974 221.726L423.961 220.727ZM430.18 220.633V224.57H432.18V220.633H430.18ZM431.053 223.578L413.007 225.875L413.259 227.859L431.306 225.562L431.053 223.578ZM414.126 226.755L413.447 220.755L411.459 220.98L412.139 226.98L414.126 226.755ZM412.461 221.867L418.461 221.82L418.445 219.82L412.445 219.867L412.461 221.867ZM419.453 220.842L419.734 207.834L417.735 207.791L417.453 220.799L419.453 220.842ZM418.808 206.815L411.519 206.276L411.372 208.271L418.661 208.81L418.808 206.815ZM412.445 207.273V203.289H410.445V207.273H412.445ZM411.533 204.285L426.697 202.949L426.522 200.957L411.358 202.293L411.533 204.285ZM425.62 201.807L424.847 207.033L426.825 207.326L427.599 202.1L425.62 201.807ZM426.559 207.871C426.867 207.548 427.29 207.16 427.836 206.706L426.555 205.169C425.976 205.652 425.492 206.092 425.113 206.488L426.559 207.871ZM427.848 206.695C428.386 206.232 428.98 205.765 429.632 205.296L428.462 203.673C427.77 204.173 427.129 204.675 426.543 205.18L427.848 206.695ZM429.635 205.293C430.308 204.804 431.021 204.313 431.773 203.822L430.68 202.147C429.901 202.656 429.161 203.165 428.459 203.676L429.635 205.293ZM431.766 203.827C432.523 203.342 433.278 202.904 434.032 202.512L433.109 200.738C432.3 201.159 431.493 201.627 430.688 202.142L431.766 203.827ZM434.045 202.505C434.795 202.1 435.525 201.758 436.235 201.477L435.499 199.617C434.709 199.93 433.908 200.306 433.095 200.745L434.045 202.505ZM436.245 201.473C436.966 201.179 437.605 200.982 438.168 200.872L437.785 198.909C437.066 199.049 436.3 199.29 435.489 199.621L436.245 201.473ZM436.98 199.972L437.613 207.753L439.606 207.591L438.973 199.81L436.98 199.972ZM438.609 206.672C436.306 206.672 434.286 206.871 432.563 207.286L433.031 209.23C434.558 208.863 436.413 208.672 438.609 208.672V206.672ZM432.561 207.286C430.917 207.685 429.514 208.131 428.367 208.63L429.164 210.464C430.173 210.025 431.458 209.612 433.033 209.23L432.561 207.286ZM428.365 208.631C427.053 209.205 425.919 209.864 424.977 210.618L426.226 212.179C427.003 211.558 427.978 210.983 429.166 210.463L428.365 208.631ZM424.617 211.225L422.976 220.553L424.946 220.9L426.586 211.572L424.617 211.225ZM423.974 221.726L431.193 221.633L431.167 219.633L423.948 219.727L423.974 221.726ZM466.453 202L467.413 202.28L467.719 201.229L466.646 201.019L466.453 202ZM464.133 209.969L463.664 210.852L464.749 211.428L465.093 210.248L464.133 209.969ZM458.672 207.742L458.383 208.7L458.387 208.701L458.672 207.742ZM455.695 207.039L455.508 208.021L455.517 208.023L455.526 208.025L455.695 207.039ZM449.93 207.32L450.355 208.226L450.362 208.222L450.37 208.218L449.93 207.32ZM449.297 210.086L448.606 210.809L448.615 210.818L448.624 210.826L449.297 210.086ZM450.844 210.977L450.465 211.902L450.472 211.905L450.844 210.977ZM453.469 211.797L453.223 212.766L453.226 212.767L453.469 211.797ZM457.172 212.711L456.934 213.682L456.944 213.685L457.172 212.711ZM460.734 213.719L460.414 214.666L460.426 214.67L460.734 213.719ZM465.445 223.305L464.595 222.779L464.588 222.79L465.445 223.305ZM463.266 225.414L463.759 226.284L463.77 226.278L463.266 225.414ZM459.938 226.562L459.758 225.579L459.755 225.579L459.938 226.562ZM451.078 226.492L450.866 227.469L450.869 227.47L451.078 226.492ZM447.844 225.578L447.466 226.504L447.477 226.508L447.487 226.512L447.844 225.578ZM445.898 224.641L445.358 225.482L445.364 225.486L445.371 225.49L445.898 224.641ZM445.078 224.219V223.219H444.194L444.086 224.096L445.078 224.219ZM444.609 228.016L444.286 228.962L445.451 229.359L445.602 228.138L444.609 228.016ZM439.664 226.328L438.72 225.997L438.387 226.949L439.341 227.275L439.664 226.328ZM442.336 218.711L442.878 217.871L441.812 217.183L441.392 218.38L442.336 218.711ZM448.734 221.734L448.372 222.666L448.382 222.67L448.393 222.674L448.734 221.734ZM451.266 222.578L450.977 223.535L450.985 223.538L450.993 223.54L451.266 222.578ZM457.547 223.023L457.935 223.945L457.946 223.94L457.957 223.935L457.547 223.023ZM458.32 222.461L459.076 223.116L459.086 223.104L459.096 223.092L458.32 222.461ZM458.086 220.188L457.364 220.879L457.371 220.887L457.379 220.895L458.086 220.188ZM455.109 218.57L454.801 219.522L454.816 219.526L454.831 219.531L455.109 218.57ZM453.539 218.078L453.826 217.12L453.814 217.116L453.8 217.113L453.539 218.078ZM451.055 217.375L450.758 218.33L450.766 218.332L450.773 218.335L451.055 217.375ZM448.289 216.414L447.918 217.343L447.924 217.345L447.931 217.348L448.289 216.414ZM441.562 211.492L440.683 211.968L440.687 211.975L440.691 211.982L441.562 211.492ZM441.633 206.266L442.514 206.739L442.517 206.732L441.633 206.266ZM443.602 204.016L443.011 203.209L443.004 203.214L443.602 204.016ZM446.812 202.492L447.097 203.451L447.104 203.449L446.812 202.492ZM455.367 202.352L455.139 203.325L455.141 203.326L455.367 202.352ZM458.695 203.336L458.337 204.27L458.347 204.273L458.695 203.336ZM461.648 204.742L461.129 205.597L462.694 206.547L462.648 204.717L461.648 204.742ZM461.555 201.039L461.747 200.058L460.523 199.818L460.555 201.064L461.555 201.039ZM465.493 201.72L463.173 209.689L465.093 210.248L467.413 202.28L465.493 201.72ZM464.602 209.085C463.804 208.662 462.924 208.251 461.963 207.85L461.194 209.697C462.107 210.077 462.93 210.463 463.664 210.852L464.602 209.085ZM461.963 207.85C460.992 207.446 459.99 207.09 458.956 206.784L458.387 208.701C459.354 208.988 460.29 209.32 461.194 209.697L461.963 207.85ZM458.961 206.785C457.938 206.476 456.906 206.232 455.865 206.054L455.526 208.025C456.485 208.189 457.437 208.414 458.383 208.7L458.961 206.785ZM455.882 206.057C454.845 205.859 453.852 205.758 452.906 205.758V207.758C453.71 207.758 454.577 207.844 455.508 208.021L455.882 206.057ZM452.906 205.758C451.596 205.758 450.438 205.958 449.49 206.422L450.37 208.218C450.952 207.933 451.779 207.758 452.906 207.758V205.758ZM449.505 206.415C449.012 206.646 448.573 206.966 448.257 207.404C447.934 207.852 447.781 208.369 447.781 208.914H449.781C449.781 208.756 449.82 208.655 449.88 208.573C449.947 208.48 450.082 208.354 450.355 208.226L449.505 206.415ZM447.781 208.914C447.781 209.655 448.076 210.303 448.606 210.809L449.987 209.363C449.83 209.213 449.781 209.079 449.781 208.914H447.781ZM448.624 210.826C449.09 211.25 449.726 211.6 450.465 211.902L451.222 210.051C450.586 209.791 450.191 209.547 449.97 209.346L448.624 210.826ZM450.472 211.905C451.229 212.208 452.15 212.494 453.223 212.766L453.715 210.828C452.694 210.569 451.864 210.308 451.215 210.048L450.472 211.905ZM453.226 212.767C454.291 213.033 455.527 213.338 456.934 213.682L457.409 211.74C456.004 211.396 454.772 211.092 453.711 210.827L453.226 212.767ZM456.944 213.685C458.181 213.975 459.338 214.302 460.414 214.666L461.055 212.771C459.912 212.385 458.694 212.041 457.4 211.737L456.944 213.685ZM460.426 214.67C461.459 215.005 462.329 215.426 463.048 215.924L464.186 214.279C463.281 213.652 462.229 213.152 461.043 212.767L460.426 214.67ZM463.048 215.924C463.746 216.407 464.282 216.986 464.673 217.664L466.405 216.664C465.859 215.717 465.114 214.921 464.186 214.279L463.048 215.924ZM464.673 217.664C465.035 218.291 465.242 219.101 465.242 220.141H467.242C467.242 218.837 466.981 217.662 466.405 216.664L464.673 217.664ZM465.242 220.141C465.242 221.249 465.008 222.111 464.595 222.779L466.296 223.831C466.946 222.78 467.242 221.532 467.242 220.141H465.242ZM464.588 222.79C464.166 223.493 463.566 224.081 462.762 224.55L463.77 226.278C464.84 225.653 465.693 224.835 466.303 223.819L464.588 222.79ZM462.773 224.544C461.95 225.01 460.951 225.36 459.758 225.579L460.117 227.546C461.486 227.296 462.706 226.881 463.759 226.284L462.773 224.544ZM459.755 225.579C458.559 225.801 457.238 225.914 455.789 225.914V227.914C457.34 227.914 458.785 227.793 460.12 227.546L459.755 225.579ZM455.789 225.914C454.008 225.914 452.512 225.777 451.288 225.514L450.869 227.47C452.27 227.77 453.914 227.914 455.789 227.914V225.914ZM451.29 225.515C450.023 225.24 448.997 224.948 448.2 224.644L447.487 226.512C448.409 226.864 449.54 227.182 450.866 227.469L451.29 225.515ZM448.221 224.652C447.398 224.317 446.809 224.029 446.426 223.791L445.371 225.49C445.894 225.815 446.602 226.152 447.466 226.504L448.221 224.652ZM446.439 223.799C446.209 223.652 446.001 223.527 445.823 223.435C445.734 223.389 445.636 223.343 445.536 223.306C445.456 223.277 445.285 223.219 445.078 223.219V225.219C444.991 225.219 444.927 225.206 444.899 225.199C444.868 225.192 444.849 225.185 444.846 225.184C444.841 225.182 444.86 225.189 444.908 225.214C445.003 225.263 445.15 225.348 445.358 225.482L446.439 223.799ZM444.086 224.096L443.617 227.893L445.602 228.138L446.071 224.341L444.086 224.096ZM444.932 227.069L439.987 225.382L439.341 227.275L444.286 228.962L444.932 227.069ZM440.608 226.659L443.28 219.042L441.392 218.38L438.72 225.997L440.608 226.659ZM441.794 219.551C442.317 219.889 442.936 220.235 443.647 220.59L444.541 218.801C443.876 218.468 443.324 218.158 442.878 217.871L441.794 219.551ZM443.647 220.59C444.35 220.942 445.1 221.292 445.894 221.642L446.7 219.811C445.932 219.473 445.212 219.137 444.541 218.801L443.647 220.59ZM445.894 221.642C446.689 221.992 447.515 222.333 448.372 222.666L449.097 220.802C448.266 220.479 447.467 220.149 446.7 219.811L445.894 221.642ZM448.393 222.674C449.268 222.993 450.13 223.28 450.977 223.535L451.555 221.621C450.745 221.376 449.919 221.101 449.076 220.795L448.393 222.674ZM450.993 223.54C451.847 223.782 452.665 223.977 453.449 224.123L453.817 222.158C453.1 222.023 452.341 221.843 451.538 221.616L450.993 223.54ZM453.449 224.123C454.243 224.272 454.978 224.352 455.648 224.352V222.352C455.131 222.352 454.523 222.29 453.817 222.158L453.449 224.123ZM455.648 224.352C455.984 224.352 456.342 224.324 456.721 224.272L456.451 222.29C456.142 222.333 455.876 222.352 455.648 222.352V224.352ZM456.721 224.272C457.145 224.214 457.551 224.107 457.935 223.945L457.159 222.102C456.949 222.19 456.714 222.254 456.451 222.29L456.721 224.272ZM457.957 223.935C458.388 223.741 458.768 223.471 459.076 223.116L457.565 221.806C457.466 221.92 457.331 222.024 457.137 222.112L457.957 223.935ZM459.096 223.092C459.479 222.621 459.625 222.051 459.625 221.477H457.625C457.625 221.714 457.568 221.801 457.544 221.83L459.096 223.092ZM459.625 221.477C459.625 220.706 459.336 220.024 458.793 219.48L457.379 220.895C457.554 221.07 457.625 221.247 457.625 221.477H459.625ZM458.808 219.496C458.364 219.032 457.834 218.648 457.231 218.338L456.315 220.116C456.744 220.336 457.089 220.593 457.364 220.879L458.808 219.496ZM457.231 218.338C456.655 218.04 456.039 217.798 455.387 217.61L454.831 219.531C455.367 219.686 455.861 219.881 456.315 220.116L457.231 218.338ZM455.418 217.619C454.834 217.43 454.304 217.263 453.826 217.12L453.252 219.036C453.712 219.174 454.228 219.336 454.801 219.522L455.418 217.619ZM453.8 217.113C453.058 216.912 452.237 216.679 451.336 216.415L450.773 218.335C451.685 218.602 452.52 218.838 453.278 219.043L453.8 217.113ZM451.351 216.42C450.467 216.145 449.565 215.832 448.647 215.48L447.931 217.348C448.888 217.715 449.83 218.042 450.758 218.33L451.351 216.42ZM448.66 215.486C447.757 215.124 446.884 214.718 446.043 214.267L445.098 216.03C446.006 216.516 446.946 216.954 447.918 217.343L448.66 215.486ZM446.043 214.267C445.231 213.832 444.515 213.337 443.89 212.783L442.563 214.28C443.314 214.945 444.16 215.527 445.098 216.03L446.043 214.267ZM443.89 212.783C443.28 212.242 442.798 211.649 442.434 211.002L440.691 211.982C441.171 212.836 441.798 213.601 442.563 214.28L443.89 212.783ZM442.442 211.016C442.122 210.426 441.953 209.749 441.953 208.961H439.953C439.953 210.048 440.19 211.058 440.683 211.968L442.442 211.016ZM441.953 208.961C441.953 208.174 442.138 207.438 442.514 206.739L440.752 205.792C440.221 206.781 439.953 207.842 439.953 208.961H441.953ZM442.517 206.732C442.894 206.018 443.447 205.378 444.199 204.817L443.004 203.214C442.038 203.934 441.278 204.795 440.748 205.799L442.517 206.732ZM444.192 204.822C444.957 204.263 445.918 203.8 447.097 203.451L446.528 201.533C445.176 201.934 443.996 202.487 443.011 203.209L444.192 204.822ZM447.104 203.449C448.273 203.092 449.625 202.906 451.172 202.906V200.906C449.468 200.906 447.914 201.111 446.521 201.536L447.104 203.449ZM451.172 202.906C452.639 202.906 453.96 203.049 455.139 203.325L455.596 201.378C454.243 201.061 452.767 200.906 451.172 200.906V202.906ZM455.141 203.326C456.391 203.615 457.454 203.931 458.337 204.27L459.053 202.402C458.062 202.022 456.906 201.682 455.593 201.377L455.141 203.326ZM458.347 204.273C459.39 204.661 460.316 205.103 461.129 205.597L462.167 203.887C461.231 203.319 460.189 202.824 459.043 202.399L458.347 204.273ZM462.648 204.717L462.554 201.014L460.555 201.064L460.649 204.767L462.648 204.717ZM461.362 202.02L466.261 202.981L466.646 201.019L461.747 200.058L461.362 202.02Z" fill="black"/>
</g>
<g filter="url(#filter1_ddd)">
<path d="M547.561 41.8119C553.303 34.8916 552.421 24.5657 545.604 18.737L528.161 3.84854C521.343 -1.98022 511.17 -1.08517 505.427 5.83512L498.523 14.1526L540.657 50.1293L547.561 41.8119Z" fill="black"/>
<path d="M535.301 56.46L493.168 20.4833L478.887 37.7294L521.02 73.7061L535.301 56.46Z" fill="black"/>
<path d="M385.006 191.548C384.898 193.032 386.253 194.189 387.673 193.818L398.319 191.089L385.802 180.392L385.006 191.548Z" fill="black"/>
<path d="M435.893 176.222L514.977 80.8666L472.843 44.8899L393.759 140.224C392.297 141.992 391.415 144.175 391.264 146.468L389.393 172.839L405.051 186.221L430.279 179.781C432.473 179.213 434.431 177.969 435.893 176.222Z" fill="#FFA800"/>
</g>
<defs>
<filter id="filter0_d" x="50.3828" y="189.377" width="421.336" height="47.9825" filterUnits="userSpaceOnUse" color-interpolation-filters="sRGB">
<feFlood flood-opacity="0" result="BackgroundImageFix"/>
<feColorMatrix in="SourceAlpha" type="matrix" values="0 0 0 0 0 0 0 0 0 0 0 0 0 0 0 0 0 0 127 0"/>
<feOffset dy="4"/>
<feGaussianBlur stdDeviation="2"/>
<feColorMatrix type="matrix" values="0 0 0 0 0 0 0 0 0 0 0 0 0 0 0 0 0 0 0.25 0"/>
<feBlend mode="normal" in2="BackgroundImageFix" result="effect1_dropShadow"/>
<feBlend mode="normal" in="SourceGraphic" in2="effect1_dropShadow" result="shape"/>
</filter>
<filter id="filter1_ddd" x="381" y="0" width="174.352" height="201.888" filterUnits="userSpaceOnUse" color-interpolation-filters="sRGB">
<feFlood flood-opacity="0" result="BackgroundImageFix"/>
<feColorMatrix in="SourceAlpha" type="matrix" values="0 0 0 0 0 0 0 0 0 0 0 0 0 0 0 0 0 0 127 0"/>
<feOffset dy="4"/>
<feGaussianBlur stdDeviation="2"/>
<feColorMatrix type="matrix" values="0 0 0 0 0 0 0 0 0 0 0 0 0 0 0 0 0 0 0.25 0"/>
<feBlend mode="normal" in2="BackgroundImageFix" result="effect1_dropShadow"/>
<feColorMatrix in="SourceAlpha" type="matrix" values="0 0 0 0 0 0 0 0 0 0 0 0 0 0 0 0 0 0 127 0"/>
<feOffset dy="4"/>
<feGaussianBlur stdDeviation="2"/>
<feColorMatrix type="matrix" values="0 0 0 0 0 0 0 0 0 0 0 0 0 0 0 0 0 0 0.25 0"/>
<feBlend mode="normal" in2="effect1_dropShadow" result="effect2_dropShadow"/>
<feColorMatrix in="SourceAlpha" type="matrix" values="0 0 0 0 0 0 0 0 0 0 0 0 0 0 0 0 0 0 127 0"/>
<feOffset dy="4"/>
<feGaussianBlur stdDeviation="2"/>
<feColorMatrix type="matrix" values="0 0 0 0 0 0 0 0 0 0 0 0 0 0 0 0 0 0 0.25 0"/>
<feBlend mode="normal" in2="effect2_dropShadow" result="effect3_dropShadow"/>
<feBlend mode="normal" in="SourceGraphic" in2="effect3_dropShadow" result="shape"/>
</filter>
<linearGradient id="paint0_linear" x1="261" y1="146" x2="261" y2="272" gradientUnits="userSpaceOnUse">
<stop stop-color="white"/>
<stop offset="1" stop-color="white" stop-opacity="0"/>
</linearGradient>
</defs>
</svg>
