<svg width="829" height="84" viewBox="0 0 829 84" fill="none" xmlns="http://www.w3.org/2000/svg">
<g filter="url(#filter0_d)">
<path d="M42.1875 61.1719L41.7188 70.7344L4.875 73.8281V58.9219L16.9688 59.7188L15.8906 19.6875L4.875 20.25L6.51562 4.03125L38.0625 5.48438L66.9844 62.4844V18.6094L57 18.8906V4.03125L92.2969 6.89062L91.6406 17.6719L81 18.0469L74.6719 73.8281L65.4375 75.6562L29.5312 19.875L25.875 60.1875L42.1875 61.1719ZM157.078 73.0781H131.719L132.328 65.3906C129.953 67.2656 127.625 68.7031 125.344 69.7031C123.094 70.7031 121.078 71.4375 119.297 71.9062C117.203 72.4688 115.203 72.7812 113.297 72.8438C110.328 72.8438 107.859 72.4688 105.891 71.7188C103.922 70.9375 102.344 69.8594 101.156 68.4844C100 67.0781 99.1719 65.4062 98.6719 63.4688C98.1719 61.5 97.9219 59.3125 97.9219 56.9062C97.9219 55.625 97.9375 54.5 97.9688 53.5312C98 52.5625 98.0469 51.6406 98.1094 50.7656C98.2031 49.8594 98.2969 48.9375 98.3906 48C98.5156 47.0625 98.6562 45.9844 98.8125 44.7656C99 43.5469 99.1875 42.1406 99.375 40.5469C99.5938 38.9219 99.8438 36.9844 100.125 34.7344L90.1406 35.3438L91.5938 24.0938L114.75 25.0781C114.375 28.5469 114.047 31.5625 113.766 34.125C113.484 36.6562 113.234 38.8594 113.016 40.7344C112.828 42.6094 112.656 44.2031 112.5 45.5156C112.375 46.8281 112.266 48 112.172 49.0312C112.078 50.0312 112.016 50.9375 111.984 51.75C111.953 52.5312 111.938 53.3594 111.938 54.2344C111.938 55.6406 112.047 56.9688 112.266 58.2188C112.484 59.4688 112.859 60.5625 113.391 61.5C113.953 62.4375 114.672 63.1719 115.547 63.7031C116.453 64.2344 117.562 64.5 118.875 64.5C120.5 64.4062 122.156 63.9531 123.844 63.1406C125.281 62.4531 126.812 61.375 128.438 59.9062C130.094 58.4375 131.672 56.3281 133.172 53.5781L134.625 33.7969L124.031 34.1719L125.016 24.0938L157.078 25.2656V32.8125L146.438 33.3281L147 63.9375L157.078 64.7812V73.0781ZM200.016 70.7344L163.172 73.8281L164.438 58.9219L177.375 59.8125L176.438 21.9844L163.172 23.4375L164.812 4.03125H194.578L218.203 50.2031L233.906 4.03125H263.578V18.8906H249.938L251.109 59.5312L265.5 59.9062L266.297 70.7344L228.188 73.8281V58.9219L241.875 59.3438L236.625 23.9062L219.141 66.4219H212.016L188.625 23.3438L185.906 60.2812L199.172 61.1719L200.016 70.7344ZM327.188 46.7344C327.188 50.1094 326.75 53.125 325.875 55.7812C325 58.4375 323.812 60.7969 322.312 62.8594C320.812 64.8906 319.078 66.6406 317.109 68.1094C315.141 69.5469 313.062 70.7344 310.875 71.6719C308.719 72.5781 306.516 73.2344 304.266 73.6406C302.016 74.0781 299.875 74.2969 297.844 74.2969C294.75 74.2969 291.734 73.7656 288.797 72.7031C285.891 71.6719 283.281 70.0781 280.969 67.9219C278.688 65.7656 276.828 63.0469 275.391 59.7656C273.984 56.4844 273.234 52.5938 273.141 48.0938C273.141 46.2812 273.172 44.3438 273.234 42.2812C273.328 40.2188 273.438 38.125 273.562 36C273.688 33.875 273.828 31.7656 273.984 29.6719C274.141 27.5469 274.312 25.5156 274.5 23.5781C274.875 19.0781 275.328 14.5469 275.859 9.98438L265.875 10.4531L266.531 0.9375L293.391 3.46875C292.984 5.46875 292.547 7.65625 292.078 10.0312C291.672 12.0625 291.219 14.4219 290.719 17.1094C290.25 19.7656 289.797 22.6094 289.359 25.6406C291.516 24.3906 293.734 23.4219 296.016 22.7344C298.328 22.0469 300.688 21.7031 303.094 21.7031C306.469 21.7031 309.625 22.2031 312.562 23.2031C315.5 24.1719 318.047 25.6875 320.203 27.75C322.391 29.7812 324.094 32.375 325.312 35.5312C326.562 38.6562 327.188 42.3906 327.188 46.7344ZM286.875 51.9375C286.875 54.125 287.188 56.1875 287.812 58.125C288.438 60.0312 289.266 61.7031 290.297 63.1406C291.359 64.5781 292.578 65.7188 293.953 66.5625C295.359 67.375 296.812 67.7812 298.312 67.7812C302.156 67.7812 305.078 66.0781 307.078 62.6719C309.078 59.2656 310.125 53.9531 310.219 46.7344C310.25 43.1094 309.922 40.1719 309.234 37.9219C308.547 35.6406 307.656 33.8594 306.562 32.5781C305.5 31.2656 304.328 30.375 303.047 29.9062C301.766 29.4375 300.578 29.1719 299.484 29.1094C298.672 29.0781 297.781 29.1875 296.812 29.4375C295.844 29.6875 294.844 30.0781 293.812 30.6094C292.781 31.1094 291.766 31.7656 290.766 32.5781C289.797 33.3594 288.891 34.2812 288.047 35.3438C287.703 38.25 287.422 41.1094 287.203 43.9219C286.984 46.7344 286.875 49.4062 286.875 51.9375ZM387.188 55.9688C386 59.0625 384.344 61.75 382.219 64.0312C380.125 66.2812 377.75 68.1562 375.094 69.6562C372.438 71.125 369.625 72.2188 366.656 72.9375C363.688 73.6562 360.766 74.0156 357.891 74.0156C353.891 74.0156 350.328 73.3906 347.203 72.1406C344.078 70.8906 341.422 69.2031 339.234 67.0781C337.047 64.9531 335.328 62.4688 334.078 59.625C332.859 56.75 332.156 53.7031 331.969 50.4844C331.969 45.5781 332.781 41.3906 334.406 37.9219C336.062 34.4219 338.297 31.5781 341.109 29.3906C343.953 27.2031 347.266 25.6094 351.047 24.6094C354.828 23.5781 358.844 23.0625 363.094 23.0625C364.656 23.0625 366.266 23.1719 367.922 23.3906C369.609 23.6094 371.25 24 372.844 24.5625C374.438 25.125 375.953 25.9062 377.391 26.9062C378.859 27.875 380.172 29.1406 381.328 30.7031C382.516 32.2344 383.516 34.0781 384.328 36.2344C385.141 38.3906 385.703 40.9375 386.016 43.875L347.531 50.7656C347.781 52.9219 348.219 55.0312 348.844 57.0938C349.5 59.1562 350.375 60.9844 351.469 62.5781C352.562 64.1406 353.906 65.3906 355.5 66.3281C357.125 67.2344 359.047 67.6562 361.266 67.5938C363.672 67.3125 365.797 66.5938 367.641 65.4375C368.422 64.9375 369.172 64.3281 369.891 63.6094C370.609 62.8594 371.234 61.9688 371.766 60.9375C372.297 59.9062 372.688 58.7031 372.938 57.3281C373.188 55.9531 373.234 54.375 373.078 52.5938L387.188 55.9688ZM369.422 40.875C369.297 39.4062 369.031 38.125 368.625 37.0312C368.219 35.9375 367.703 35 367.078 34.2188C366.484 33.4375 365.812 32.7969 365.062 32.2969C364.344 31.7656 363.609 31.3438 362.859 31.0312C361.109 30.3125 359.141 29.9844 356.953 30.0469C354.891 30.2969 353.219 30.8906 351.938 31.8281C350.656 32.7344 349.656 33.875 348.938 35.25C348.25 36.5938 347.781 38.0938 347.531 39.75C347.281 41.4062 347.156 43.0938 347.156 44.8125L369.422 40.875ZM471.094 47.7188L467.578 70.7344H447.188L430.5 43.875C428.094 44.0625 425.5 44.1562 422.719 44.1562C421.656 44.1562 420.578 44.1562 419.484 44.1562C418.391 44.1562 417.266 44.125 416.109 44.0625L415.312 60.2812L430.219 61.1719L431.062 70.7344L392.859 73.8281V58.9219L406.219 59.7188L403.641 19.875L393.75 21.8906L391.828 7.6875C394.109 7 396.406 6.40625 398.719 5.90625C401.062 5.375 403.359 4.92188 405.609 4.54688C407.859 4.17188 410.031 3.85937 412.125 3.60938C414.219 3.32812 416.188 3.09375 418.031 2.90625C422.344 2.5 426.5 2.26562 430.5 2.20312C435.562 2.20312 440.281 2.625 444.656 3.46875C449.062 4.3125 452.859 5.5625 456.047 7.21875C459.266 8.875 461.75 10.9375 463.5 13.4062C465.281 15.8438 466.062 18.6719 465.844 21.8906C465.688 24.1406 465.016 26.3438 463.828 28.5C462.672 30.6562 460.969 32.6562 458.719 34.5C456.5 36.3438 453.75 37.9844 450.469 39.4219C447.188 40.8594 443.344 41.9844 438.938 42.7969L456.047 59.25L463.641 57.3281L463.734 47.7188H471.094ZM420.422 37.9219C422.016 37.9219 423.875 37.8906 426 37.8281C428.125 37.7344 430.297 37.5312 432.516 37.2188C434.734 36.875 436.891 36.3906 438.984 35.7656C441.078 35.1406 442.891 34.2812 444.422 33.1875C445.984 32.0938 447.156 30.75 447.938 29.1562C448.75 27.5312 448.953 25.5625 448.547 23.25C448.391 22.375 447.969 21.4844 447.281 20.5781C446.594 19.6406 445.594 18.7969 444.281 18.0469C442.969 17.2969 441.328 16.6875 439.359 16.2188C437.422 15.7188 435.109 15.4688 432.422 15.4688C431.109 15.4688 429.828 15.5 428.578 15.5625C427.359 15.625 426.141 15.7188 424.922 15.8438C423.734 15.9375 422.531 16.0781 421.312 16.2656C420.094 16.4531 418.812 16.6562 417.469 16.875L416.391 37.8281C417.078 37.8906 417.75 37.9219 418.406 37.9219C419.062 37.9219 419.734 37.9219 420.422 37.9219Z" fill="#3F9748"/>
<path d="M555.375 59.25L555.094 71.1562L514.781 72.375V57.6094L530.438 58.2656L527.438 20.4375L510.75 20.5312L510.469 34.2656H502.406L504.797 6.32812L566.438 3.84375L570 33.0469L561.141 34.2656L560.859 20.25L542.25 20.3438L539.156 58.5469L555.375 59.25ZM638.859 73.0781H613.5L614.109 65.3906C611.734 67.2656 609.406 68.7031 607.125 69.7031C604.875 70.7031 602.859 71.4375 601.078 71.9062C598.984 72.4688 596.984 72.7812 595.078 72.8438C592.109 72.8438 589.641 72.4688 587.672 71.7188C585.703 70.9375 584.125 69.8594 582.938 68.4844C581.781 67.0781 580.953 65.4062 580.453 63.4688C579.953 61.5 579.703 59.3125 579.703 56.9062C579.703 55.625 579.719 54.5 579.75 53.5312C579.781 52.5625 579.828 51.6406 579.891 50.7656C579.984 49.8594 580.078 48.9375 580.172 48C580.297 47.0625 580.438 45.9844 580.594 44.7656C580.781 43.5469 580.969 42.1406 581.156 40.5469C581.375 38.9219 581.625 36.9844 581.906 34.7344L571.922 35.3438L573.375 24.0938L596.531 25.0781C596.156 28.5469 595.828 31.5625 595.547 34.125C595.266 36.6562 595.016 38.8594 594.797 40.7344C594.609 42.6094 594.438 44.2031 594.281 45.5156C594.156 46.8281 594.047 48 593.953 49.0312C593.859 50.0312 593.797 50.9375 593.766 51.75C593.734 52.5312 593.719 53.3594 593.719 54.2344C593.719 55.6406 593.828 56.9688 594.047 58.2188C594.266 59.4688 594.641 60.5625 595.172 61.5C595.734 62.4375 596.453 63.1719 597.328 63.7031C598.234 64.2344 599.344 64.5 600.656 64.5C602.281 64.4062 603.938 63.9531 605.625 63.1406C607.062 62.4531 608.594 61.375 610.219 59.9062C611.875 58.4375 613.453 56.3281 614.953 53.5781L616.406 33.7969L605.812 34.1719L606.797 24.0938L638.859 25.2656V32.8125L628.219 33.3281L628.781 63.9375L638.859 64.7812V73.0781ZM695.531 59.25L695.25 71.1562L654.938 72.375V57.6094L670.594 58.2656L667.594 20.4375L650.906 20.5312L650.625 34.2656H642.562L644.953 6.32812L706.594 3.84375L710.156 33.0469L701.297 34.2656L701.016 20.25L682.406 20.3438L679.312 58.5469L695.531 59.25ZM737.484 74.8594C733.141 74.8594 729.391 74.2031 726.234 72.8906C723.109 71.5781 720.531 69.7969 718.5 67.5469C716.5 65.2969 715.016 62.6719 714.047 59.6719C713.078 56.6719 712.594 53.4844 712.594 50.1094C712.594 45.5781 713.375 41.6094 714.938 38.2031C716.531 34.7969 718.672 31.9688 721.359 29.7188C724.078 27.4375 727.219 25.7344 730.781 24.6094C734.344 23.4844 738.109 22.9219 742.078 22.9219C746.516 22.9219 750.25 23.5781 753.281 24.8906C756.344 26.2031 758.812 27.9688 760.688 30.1875C762.562 32.375 763.906 34.9062 764.719 37.7812C765.562 40.625 765.984 43.6094 765.984 46.7344C765.984 50.9844 765.297 54.8438 763.922 58.3125C762.578 61.7812 760.656 64.75 758.156 67.2188C755.688 69.6562 752.688 71.5312 749.156 72.8438C745.656 74.1875 741.766 74.8594 737.484 74.8594ZM739.5 29.2969C737.844 29.2969 736.391 29.6562 735.141 30.375C733.922 31.0625 732.859 31.9844 731.953 33.1406C731.078 34.2656 730.344 35.5469 729.75 36.9844C729.156 38.4219 728.688 39.8906 728.344 41.3906C728 42.8594 727.75 44.2969 727.594 45.7031C727.469 47.1094 727.406 48.3281 727.406 49.3594C727.406 50.4844 727.484 51.75 727.641 53.1562C727.797 54.5312 728.062 55.9219 728.438 57.3281C728.812 58.7344 729.312 60.1094 729.938 61.4531C730.562 62.7969 731.344 63.9844 732.281 65.0156C733.219 66.0469 734.312 66.875 735.562 67.5C736.844 68.125 738.312 68.4375 739.969 68.4375C741.656 68.4375 743.094 68.125 744.281 67.5C745.5 66.875 746.516 66.0469 747.328 65.0156C748.172 63.9844 748.844 62.8125 749.344 61.5C749.844 60.1875 750.219 58.8594 750.469 57.5156C750.75 56.1406 750.938 54.8125 751.031 53.5312C751.125 52.25 751.172 51.1094 751.172 50.1094C751.172 48.7656 751.094 47.3125 750.938 45.75C750.812 44.1875 750.578 42.6406 750.234 41.1094C749.922 39.5469 749.469 38.0625 748.875 36.6562C748.312 35.2188 747.594 33.9688 746.719 32.9062C745.875 31.8125 744.844 30.9375 743.625 30.2812C742.438 29.625 741.062 29.2969 739.5 29.2969ZM809.438 61.2656V69.1406L773.344 73.7344L771.984 61.7344L783.984 61.6406L784.547 35.625L769.969 34.5469V26.5781L800.297 23.9062L798.75 34.3594C799.438 33.6406 800.344 32.8125 801.469 31.875C802.594 30.9062 803.828 29.9375 805.172 28.9688C806.547 27.9688 808 26.9688 809.531 25.9688C811.094 24.9688 812.656 24.0625 814.219 23.25C815.781 22.4062 817.312 21.6875 818.812 21.0938C820.344 20.4688 821.75 20.0312 823.031 19.7812L824.297 35.3438C819.797 35.3438 815.922 35.7344 812.672 36.5156C809.453 37.2969 806.766 38.1562 804.609 39.0938C802.109 40.1875 800 41.4219 798.281 42.7969L795 61.4531L809.438 61.2656Z" fill="black"/>
</g>
<defs>
<filter id="filter0_d" x="0.875" y="0.9375" width="827.422" height="82.7188" filterUnits="userSpaceOnUse" color-interpolation-filters="sRGB">
<feFlood flood-opacity="0" result="BackgroundImageFix"/>
<feColorMatrix in="SourceAlpha" type="matrix" values="0 0 0 0 0 0 0 0 0 0 0 0 0 0 0 0 0 0 127 0"/>
<feOffset dy="4"/>
<feGaussianBlur stdDeviation="2"/>
<feColorMatrix type="matrix" values="0 0 0 0 0 0 0 0 0 0 0 0 0 0 0 0 0 0 0.25 0"/>
<feBlend mode="normal" in2="BackgroundImageFix" result="effect1_dropShadow"/>
<feBlend mode="normal" in="SourceGraphic" in2="effect1_dropShadow" result="shape"/>
</filter>
</defs>
</svg>
